<svg version="1.1" xmlns="http://www.w3.org/2000/svg" viewBox="0 0 2624.992687093791 3623.5" width="5249.985374187582" height="7247">
  <!-- svg-source:excalidraw -->
  
  <defs>
    <style>
      @font-face {
        font-family: "Virgil";
        src: url("https://excalidraw.com/Virgil.woff2");
      }
      @font-face {
        font-family: "Cascadia";
        src: url("https://excalidraw.com/Cascadia.woff2");
      }
    </style>
  </defs>
  <rect x="0" y="0" width="2624.992687093791" height="3623.5" fill="#ffffff"></rect><g stroke-linecap="round" transform="translate(930.7704648715685 40) rotate(0 64.5 39.5)"><path d="M0.02 1.02 C32.8 0.83, 62.43 -0.08, 127.39 1.59 M-0.62 -0.98 C45.25 0.39, 89.54 0.42, 129.34 0.58 M127.69 0.09 C129.21 20.95, 130.89 42.94, 127.17 77 M129.37 -0.11 C129.52 17.46, 128.18 34.05, 128.99 78.62 M130.41 80.12 C79.67 78.35, 27.26 81.1, 0.49 78.65 M129.65 79.03 C102.8 79.03, 74.88 78.58, -0.68 79.67 M-0.71 79.76 C-0.49 57.66, 0.58 35.72, 1.95 1.68 M-0.71 79.48 C0.32 48.62, -0.95 20.01, 0.64 -0.48" stroke="#000000" stroke-width="1" fill="none"></path></g><g stroke-linecap="round" transform="translate(1016.7704648715685 202) rotate(0 77.5 42.5)"><path d="M-1.65 -1.31 C55.63 -1.79, 109.74 -0.12, 153.37 -1.83 M-0.37 0.37 C30.91 1.85, 62.23 0.51, 154.54 -0.01 M156.37 1.41 C156.94 24.1, 154.29 45.11, 156.21 85.49 M154.78 0.65 C154.26 24.82, 154.54 47.93, 154.87 84.32 M153.09 84.29 C98.93 83.18, 41.65 84.25, 0.01 86.95 M155.58 84.29 C95.98 87.19, 35.15 85.92, 0.09 85.64 M0.13 85.95 C-2.02 64.03, -1.37 43.89, 0.91 0.67 M-0.41 85.61 C-0.46 51.67, 1.27 20.19, 0.52 -0.47" stroke="#000000" stroke-width="1" fill="none"></path></g><g transform="translate(978.7704648715685 67) rotate(0 16.5 12.5)"><text x="16.5" y="18" font-family="Virgil, Segoe UI Emoji" font-size="20px" fill="#000000" text-anchor="middle" style="white-space: pre;" direction="ltr">App</text></g><g transform="translate(1056.2704648715685 232) rotate(0 38 12.5)"><text x="38" y="18" font-family="Virgil, Segoe UI Emoji" font-size="20px" fill="#000000" text-anchor="middle" style="white-space: pre;" direction="ltr">Counter</text></g><g stroke-linecap="round"><g transform="translate(1019.7704648715685 127) rotate(0 26.931365108489956 32.08926733142698)"><path d="M-0.63 0.29 C8.29 10.77, 45.17 52.68, 54.49 63.16 M1.24 -0.6 C9.87 10.07, 44.36 53.92, 53.28 64.78" stroke="#000000" stroke-width="1" fill="none"></path></g><g transform="translate(1019.7704648715685 127) rotate(0 26.931365108489956 32.08926733142698)"><path d="M28.13 48.35 C37.75 55.84, 47.55 61.18, 51.7 65.37 M27.38 49.19 C33.47 52.6, 39.27 55.3, 54.1 64.5" stroke="#000000" stroke-width="1" fill="none"></path></g><g transform="translate(1019.7704648715685 127) rotate(0 26.931365108489956 32.08926733142698)"><path d="M44.14 35.51 C47.66 47.83, 51.34 58.08, 51.7 65.37 M43.39 36.36 C46.13 42.52, 48.55 47.92, 54.1 64.5" stroke="#000000" stroke-width="1" fill="none"></path></g></g><g stroke-linecap="round" transform="translate(1046.7704648715685 431) rotate(0 61.5 29.5)"><path d="M1.14 -1.96 C28.55 -0.71, 55.17 1.1, 123.69 1.93 M0.71 -0.02 C26.43 -0.53, 52.01 -0.16, 123.01 0.75 M124.6 1.76 C121.16 21.27, 121.81 46.72, 122.34 59.88 M122.05 -0.65 C124.09 22.2, 123.45 47.17, 123.34 59.35 M122.13 58.28 C88.99 57.21, 55.1 58.17, 1.33 60.6 M122.35 59.77 C79.36 59.09, 34.96 59.67, -0.12 58.64 M1.36 58.19 C0.9 40.47, 1.11 24.16, 0.78 -1.8 M-0.83 59.56 C-0.05 34.86, 0.62 11.8, 0.93 0.18" stroke="#000000" stroke-width="1" fill="none"></path></g><g transform="translate(1086.7704648715685 448) rotate(0 21.5 12.5)"><text x="21.5" y="18" font-family="Virgil, Segoe UI Emoji" font-size="20px" fill="#000000" text-anchor="middle" style="white-space: pre;" direction="ltr">span</text></g><g stroke-linecap="round" transform="translate(1218.7704648715685 430) rotate(0 60.5 31)"><path d="M1.92 0.69 C43.68 -0.22, 85.8 -1.68, 120.13 -0.72 M0.13 0.66 C42.26 -0.52, 83.05 -0.28, 120.35 0.77 M120.31 -0.23 C119.71 21.22, 119.29 41.22, 122.36 61.19 M120.91 0.39 C119.72 21.28, 120.32 40.62, 120.17 62.56 M119.79 63.87 C87.89 61.96, 53.38 62.56, -1.57 61.6 M120.51 61.18 C89.69 62.63, 59.76 63.36, 0.82 62.28 M-1.51 63.1 C1.19 50.07, -2.07 38.06, -1 0.13 M-0.74 62.58 C-1.1 41.41, 0.27 22.69, -0.66 0.76" stroke="#000000" stroke-width="1" fill="none"></path></g><g transform="translate(1246.7704648715685 448.5) rotate(0 32.5 12.5)"><text x="32.5" y="18" font-family="Virgil, Segoe UI Emoji" font-size="20px" fill="#000000" text-anchor="middle" style="white-space: pre;" direction="ltr">button</text></g><g transform="translate(1271.7704648715685 306) rotate(0 19.5 12.5)"><text x="0" y="18" font-family="Virgil, Segoe UI Emoji" font-size="20px" fill="#000000" text-anchor="start" style="white-space: pre;" direction="ltr">click</text></g><g transform="translate(1196.7704648715685 194) rotate(0 46 12.5)"><text x="0" y="18" font-family="Virgil, Segoe UI Emoji" font-size="20px" fill="#000000" text-anchor="start" style="white-space: pre;" direction="ltr">setState</text></g><g transform="translate(1030.7704648715685 344) rotate(0 30 12.5)"><text x="0" y="18" font-family="Virgil, Segoe UI Emoji" font-size="20px" fill="#000000" text-anchor="start" style="white-space: pre;" direction="ltr">render</text></g><g stroke-linecap="round"><g transform="translate(1155.7704648715685 286) rotate(0 -6.030121517181328 72.18488296157685)"><path d="M-0.1 -0.43 C-2.1 23.91, -10.16 120.58, -11.96 145.04 M-1.61 -1.7 C-3.24 22.84, -8.09 121.16, -9.76 146.07" stroke="#000000" stroke-width="1" fill="none"></path></g></g><g stroke-linecap="round"><g transform="translate(1161.7704648715685 285) rotate(0 26.90103047382547 73.8520020317612)"><path d="M0.65 0.93 C9.76 25.55, 45.49 122.97, 54.27 147.33 M-0.47 0.37 C8.54 24.64, 44.69 120.69, 53.47 145.38" stroke="#000000" stroke-width="1" fill="none"></path></g></g><g stroke-linecap="round"><g transform="translate(1279.7704648715685 419) rotate(0 -93.31770406875614 -96.10866271653211)"><path d="M0.56 0.33 C-1.21 -13.95, 4.16 -53.16, -10.99 -85.92 C-26.15 -118.69, -61.74 -199.41, -90.37 -196.26 C-119 -193.11, -169.06 -100.62, -182.79 -67.01 C-196.52 -33.4, -174.64 -6.68, -172.77 5.4 M-0.6 -0.54 C-2.5 -14.67, 3.18 -51.93, -11.94 -84.87 C-27.06 -117.82, -62.92 -201.29, -91.33 -198.22 C-119.75 -195.14, -169.15 -100.47, -182.43 -66.44 C-195.7 -32.4, -172.46 -5.85, -170.98 6" stroke="#000000" stroke-width="1" fill="none"></path></g><g transform="translate(1279.7704648715685 419) rotate(0 -93.31770406875614 -96.10866271653211)"><path d="M-190.24 -16.52 C-187.06 -11.19, -178.96 -4.16, -172.66 4.72 M-191.12 -16.29 C-183.26 -9.42, -176.69 -2.43, -171.27 5.89" stroke="#000000" stroke-width="1" fill="none"></path></g><g transform="translate(1279.7704648715685 419) rotate(0 -93.31770406875614 -96.10866271653211)"><path d="M-171.12 -23.98 C-173.09 -16.55, -170.14 -7.52, -172.66 4.72 M-172 -23.75 C-170.48 -14.32, -170.29 -4.85, -171.27 5.89" stroke="#000000" stroke-width="1" fill="none"></path></g></g><g transform="translate(1083.7704648715685 40) rotate(0 43 12.5)"><text x="0" y="18" font-family="Virgil, Segoe UI Emoji" font-size="20px" fill="#000000" text-anchor="start" style="white-space: pre;" direction="ltr">{ toto }</text></g><g transform="translate(1156.7704648715685 166) rotate(0 43 12.5)"><text x="0" y="18" font-family="Virgil, Segoe UI Emoji" font-size="20px" fill="#000000" text-anchor="start" style="white-space: pre;" direction="ltr">{ toto }</text></g><g transform="translate(1021.7704648715685 10) rotate(0 85.5 12.5)"><text x="0" y="18" font-family="Virgil, Segoe UI Emoji" font-size="20px" fill="#000000" text-anchor="start" style="white-space: pre;" direction="ltr">&lt;App toto="..." /&gt;</text></g><g transform="translate(1104.7704648715685 133) rotate(0 107 12.5)"><text x="0" y="18" font-family="Virgil, Segoe UI Emoji" font-size="20px" fill="#000000" text-anchor="start" style="white-space: pre;" direction="ltr">&lt;Counter toto="..." /&gt;</text></g><g stroke-linecap="round" transform="translate(562.7704648715685 238) rotate(0 77.5 56)"><path d="M-0.52 1.85 C50.48 1.57, 103.35 -2.2, 155.44 1.98 M-0.75 -0.48 C35.2 1.07, 69.43 -0.02, 155 -0.61 M154.31 -1.78 C156.84 26.84, 154.84 56.24, 155.12 110.42 M155.12 0.73 C153.96 35.92, 155.27 70.07, 154.78 112.66 M154.61 111.48 C99.91 114.51, 45.11 111.44, -0.47 110.72 M156 112.69 C99.5 113.91, 43.03 113.74, 0.32 112.82 M1.02 113.22 C0.45 67.58, 1.46 28.19, 1.82 0 M0.94 112.22 C-0.73 78.01, 0.69 45.28, -0.59 -0.07" stroke="#000000" stroke-width="1" fill="none"></path></g><g transform="translate(606.7704648715685 281.5) rotate(0 33.5 12.5)"><text x="33.5" y="18" font-family="Virgil, Segoe UI Emoji" font-size="20px" fill="#000000" text-anchor="middle" style="white-space: pre;" direction="ltr">Parent</text></g><g stroke-linecap="round" transform="translate(562.7704648715685 436) rotate(0 79 55.5)"><path d="M0.8 -1.43 C42.8 -2.58, 87.8 -1.25, 159.27 1.99 M0.54 0.75 C58.55 -0.64, 117.27 -2.44, 157.5 0.51 M158.36 1.52 C159.47 40.07, 157.69 80.29, 159.81 112.88 M158.76 0.96 C156.68 35.65, 157.54 71.86, 157.07 110.34 M158.53 110.22 C106.78 110.49, 56.06 107.77, -1.78 110.51 M157.92 110.98 C119.82 109.34, 82.18 110.84, 0.33 110.12 M1.92 110.29 C-0.03 78.47, -2.06 41.78, 1.62 -0.02 M-0.91 111.63 C0.32 82.5, 0.91 55.4, -0.92 -0.08" stroke="#000000" stroke-width="1" fill="none"></path></g><g transform="translate(590.7704648715685 479) rotate(0 51 12.5)"><text x="51" y="18" font-family="Virgil, Segoe UI Emoji" font-size="20px" fill="#000000" text-anchor="middle" style="white-space: pre;" direction="ltr">Composant</text></g><g stroke-linecap="round"><g transform="translate(654.7704648715685 557) rotate(0 80.79948321001251 21.85192854534364)"><path d="M0.98 -1.04 C21.84 15.16, 97.75 96.61, 124.32 97.53 C150.88 98.46, 166.42 29.96, 160.38 4.51 C154.34 -20.93, 100.47 -45.32, 88.06 -55.12 M0.04 1.04 C20.83 17.37, 96.9 98.59, 123.53 98.82 C150.16 99.06, 166.2 28.01, 159.82 2.44 C153.43 -23.13, 97.25 -45.19, 85.2 -54.6" stroke="#000000" stroke-width="1" fill="none"></path></g><g transform="translate(654.7704648715685 557) rotate(0 80.79948321001251 21.85192854534364)"><path d="M113.03 -48.91 C107.04 -49.76, 101.75 -49.85, 83.34 -56.39 M114.13 -49.51 C106.63 -51.4, 97.84 -52.68, 86.02 -54.28" stroke="#000000" stroke-width="1" fill="none"></path></g><g transform="translate(654.7704648715685 557) rotate(0 80.79948321001251 21.85192854534364)"><path d="M102.79 -31.12 C99.15 -36.23, 96.26 -40.48, 83.34 -56.39 M103.9 -31.72 C99.31 -38.46, 93.35 -44.63, 86.02 -54.28" stroke="#000000" stroke-width="1" fill="none"></path></g></g><g transform="translate(831.7704648715685 573) rotate(0 46 25)"><text x="0" y="18" font-family="Virgil, Segoe UI Emoji" font-size="20px" fill="#000000" text-anchor="start" style="white-space: pre;" direction="ltr">setState</text><text x="0" y="43" font-family="Virgil, Segoe UI Emoji" font-size="20px" fill="#000000" text-anchor="start" style="white-space: pre;" direction="ltr">useState</text></g><g stroke-linecap="round"><g transform="translate(629.7704648715685 363) rotate(0 1.1711409355373803 31.911743451422097)"><path d="M0.11 0.29 C0.77 10.99, 3.06 52.52, 3.63 63.27 M-1.29 -0.6 C-0.7 10.32, 2.3 53.85, 3.01 64.43" stroke="#000000" stroke-width="1" fill="none"></path></g><g transform="translate(629.7704648715685 363) rotate(0 1.1711409355373803 31.911743451422097)"><path d="M-8.66 38.05 C-7.25 45.31, -1.39 52.81, 4.57 65.32 M-8.78 37.7 C-6.25 43.51, -3.51 49.06, 3.66 64.81" stroke="#000000" stroke-width="1" fill="none"></path></g><g transform="translate(629.7704648715685 363) rotate(0 1.1711409355373803 31.911743451422097)"><path d="M11.82 36.65 C7.63 44.32, 7.9 52.2, 4.57 65.32 M11.7 36.31 C9.69 42.46, 7.89 48.33, 3.66 64.81" stroke="#000000" stroke-width="1" fill="none"></path></g></g><g transform="translate(654.7704648715685 381) rotate(0 25 12.5)"><text x="0" y="18" font-family="Virgil, Segoe UI Emoji" font-size="20px" fill="#000000" text-anchor="start" style="white-space: pre;" direction="ltr">props</text></g><g stroke-linecap="round" transform="translate(1635.7704648715685 35) rotate(0 95.5 57.5)"><path d="M-0.72 1.71 C66.51 -0.47, 135.75 0.71, 189.74 1.19 M0.33 0.05 C50.64 -1.66, 98.54 -1.75, 191.82 0.69 M190.14 -0.16 C191.05 34.59, 193.26 71.72, 191.09 117 M190.33 0.17 C190.14 35.07, 190.8 72.75, 190.3 115.19 M190.48 116.09 C127.31 111.67, 65.18 114.46, -0.31 113.4 M191.72 114.54 C148.54 113.21, 106.19 113.34, -0.36 115.33 M-0.54 113.56 C1.7 69.67, -1.49 24.64, -0.82 1.02 M0.28 115.24 C0.4 85.43, -0.38 57.41, 0.41 0.44" stroke="#000000" stroke-width="1" fill="none"></path></g><g transform="translate(1714.7704648715685 80) rotate(0 16.5 12.5)"><text x="16.5" y="18" font-family="Virgil, Segoe UI Emoji" font-size="20px" fill="#000000" text-anchor="middle" style="white-space: pre;" direction="ltr">App</text></g><g stroke-linecap="round"><g transform="translate(1712.7704648715685 149) rotate(0 -26.925232601165817 56.48062996144873)"><path d="M0.99 1.17 C-8.18 20.04, -45.74 93.61, -54.84 112.23 M0.06 0.73 C-8.76 19.3, -43.53 91.85, -52.58 110.22" stroke="#000000" stroke-width="1" fill="none"></path></g></g><g stroke-linecap="round" transform="translate(1561.7704648715685 270) rotate(0 102.5 42.5)"><path d="M-1.01 0.33 C68.99 -2.32, 140.19 -1.78, 206.74 1.32 M-0.36 -0.54 C79.53 -1.73, 157.79 -0.26, 204.17 -0.17 M203.12 -1.9 C205.37 22.98, 204.79 44.49, 203.81 85.06 M205.17 -0.94 C204.75 32.37, 204.17 64.95, 205.06 84.89 M206.71 86.16 C158.96 84.7, 110.15 82.26, -1.16 84.45 M204.81 85.21 C137.19 83.3, 68.4 83.9, 0.43 85.2 M1.38 83.62 C0.87 55.75, -1.33 27.54, -1.76 -1.42 M-0.49 84.97 C1.3 61.88, 1.3 37.3, 0.63 0.61" stroke="#000000" stroke-width="1" fill="none"></path></g><g transform="translate(1614.2704648715685 300) rotate(0 50 12.5)"><text x="50" y="18" font-family="Virgil, Segoe UI Emoji" font-size="20px" fill="#000000" text-anchor="middle" style="white-space: pre;" direction="ltr">button "+"</text></g><g stroke-linecap="round"><g stroke-opacity="0.5" fill-opacity="0.5" transform="translate(1782.7704648715685 149) rotate(0 43.71715878498276 55.448214010107336)"><path d="M-0.13 -0.85 C14.88 17.61, 74.04 91.89, 89.09 110.83 M-1.65 1.32 C13.29 19.87, 72.91 93.49, 88.19 111.75" stroke="#000000" stroke-width="1" fill="none"></path></g></g><g stroke-opacity="0.3" fill-opacity="0.3" stroke-linecap="round" transform="translate(1807.7704648715685 268) rotate(0 135 44.5)"><path d="M-1.11 -0.39 C68.88 2.97, 139.29 1.82, 271.06 0.42 M0.48 0.76 C98.95 -1.87, 198.55 -0.87, 269.34 0.73 M269.3 0.96 C270.92 35.78, 269.08 69.7, 268.6 89.37 M269.62 0.31 C271.13 18.31, 270.09 37.62, 269.23 89.68 M271.31 89.86 C161.86 85.63, 54.43 85.72, -0.95 88.9 M270.42 89.78 C194.63 89.03, 118.19 88.05, 0.76 89.72 M0.35 90.55 C-0.47 59.93, 1.83 33.87, -0.97 -1.83 M-0.58 89.85 C-0.04 53.65, -0.53 19.26, -0.84 0.69" stroke="#000000" stroke-width="1" fill="none"></path></g><g stroke-opacity="0.3" fill-opacity="0.3" transform="translate(1885.7704648715685 300) rotate(0 57 12.5)"><text x="57" y="18" font-family="Virgil, Segoe UI Emoji" font-size="20px" fill="#000000" text-anchor="middle" style="white-space: pre;" direction="ltr">CounterList</text></g><g stroke-linecap="round"><g transform="translate(1858.7704648715685 355) rotate(0 -27.989936506813365 75.19642204063479)"><path d="M0.21 0.93 C-8.91 25.8, -46.04 124, -55.02 148.84 M-1.14 0.37 C-10.42 25.43, -47.39 125.44, -56.19 150.02" stroke="#000000" stroke-width="1" fill="none"></path></g></g><g stroke-linecap="round"><g transform="translate(1878.7704648715685 355) rotate(0 -1.688711050665006 31.098873349493374)"><path d="M-0.61 -0.08 C-1.38 10.25, -3.4 51.72, -3.8 61.89 M1.26 -1.17 C0.29 9.36, -3.9 52.9, -4.64 63.37" stroke="#000000" stroke-width="1" fill="none"></path></g></g><g stroke-linecap="round"><g transform="translate(1906.7704648715685 360) rotate(0 -6.022135475790151 29.69607828612908)"><path d="M-1.19 0.58 C-3.26 10.38, -10.18 49.93, -12.01 59.55 M0.39 -0.16 C-1.78 9.23, -10.28 47.92, -12.43 57.84" stroke="#000000" stroke-width="1" fill="none"></path></g></g><g transform="translate(1870.7704648715685 433) rotate(0 8 12.5)"><text x="0" y="18" font-family="Virgil, Segoe UI Emoji" font-size="20px" fill="#000000" text-anchor="start" style="white-space: pre;" direction="ltr">...</text></g><g stroke-linecap="round" transform="translate(1588.7704648715685 512) rotate(0 115 38)"><path d="M-0.8 -1.24 C49.93 0.04, 98.53 0.73, 231.62 1.09 M0.05 0.81 C76.19 0.35, 150.5 0.7, 230.37 -0.71 M231.66 -1.31 C230.63 17.37, 231.35 34.02, 231.27 77.62 M230.8 -0.05 C229.77 26.34, 230.04 51.58, 229.75 75.16 M231.46 77.62 C167.29 76.41, 107.34 78.14, 1.34 75.4 M229.89 75.93 C151.53 76.29, 72.63 75.15, -0.6 75.45 M-0.66 75.82 C1.65 47.13, 1.2 17.44, 0.44 0.44 M-0.16 76.39 C-0.26 57.87, -1.13 40.43, 0.88 0.06" stroke="#000000" stroke-width="1" fill="none"></path></g><g transform="translate(1665.7704648715685 537.5) rotate(0 38 12.5)"><text x="38" y="18" font-family="Virgil, Segoe UI Emoji" font-size="20px" fill="#000000" text-anchor="middle" style="white-space: pre;" direction="ltr">Counter</text></g><g stroke-linecap="round" transform="translate(1831.7704648715685 507) rotate(0 72 41.5)"><path d="M0.03 1.24 C37.48 0.12, 77.12 1.02, 142.78 1.89 M0.44 0.56 C29.73 -0.99, 59.01 -1.3, 143.61 -0.46 M142.88 -1.91 C143.67 28.62, 144.39 62.34, 145.32 81.23 M143.15 -0.64 C145.24 18.1, 144.26 36.7, 143.19 83.82 M144.91 81.38 C94.54 83.01, 45.39 81.4, -1.21 83.48 M143.39 83.77 C111.89 82.77, 79.62 81.74, 0.81 82.08 M-0.74 84.19 C1.02 60.54, 2.45 36.55, -1.16 1.26 M-0.03 82.85 C-0.2 50.78, -0.69 19.6, 0 0.66" stroke="#000000" stroke-width="1" fill="none"></path></g><g transform="translate(1855.7704648715685 536) rotate(0 48 12.5)"><text x="48" y="18" font-family="Virgil, Segoe UI Emoji" font-size="20px" fill="#000000" text-anchor="middle" style="white-space: pre;" direction="ltr">button "-"</text></g><g stroke-linecap="round"><g transform="translate(1830.7704648715685 438) rotate(0 14.288638048288362 34.81489758859857)"><path d="M0.18 -1.18 C5.15 10.23, 25.13 57.75, 29.76 69.53 M-1.18 0.81 C3.7 12.9, 23.97 59.2, 29.21 70.81" stroke="#000000" stroke-width="1" fill="none"></path></g></g><g stroke-linecap="round"><g transform="translate(371.7704648715685 564) rotate(0 86.10601375353056 -31.34037237167354)"><path d="M-0.19 0.58 C28.65 -10.02, 145.19 -52.6, 173.96 -63.26 M-1.74 -0.16 C26.94 -10.61, 144.66 -51.5, 173.51 -61.86" stroke="#000000" stroke-width="1" fill="none"></path></g><g transform="translate(371.7704648715685 564) rotate(0 86.10601375353056 -31.34037237167354)"><path d="M151.31 -41.22 C158.54 -50.9, 166.97 -58.81, 174.13 -61.73 M150.03 -42.21 C158.47 -50.39, 168.29 -57.23, 173.3 -61.64" stroke="#000000" stroke-width="1" fill="none"></path></g><g transform="translate(371.7704648715685 564) rotate(0 86.10601375353056 -31.34037237167354)"><path d="M144.48 -60.57 C154.33 -62.98, 165.32 -63.62, 174.13 -61.73 M143.21 -61.57 C154.19 -62.54, 166.57 -62.13, 173.3 -61.64" stroke="#000000" stroke-width="1" fill="none"></path></g></g><g stroke-linecap="round"><g transform="translate(357.7704648715685 523) rotate(0 98.88642511367799 -123.0733376502991)"><path d="M-1.19 1.1 C32.01 -39.95, 165.58 -206.04, 198.96 -247.24 M0.39 0.63 C33.54 -40.15, 165.43 -204.39, 198.51 -245.83" stroke="#000000" stroke-width="1" fill="none"></path></g><g transform="translate(357.7704648715685 523) rotate(0 98.88642511367799 -123.0733376502991)"><path d="M190.72 -215.82 C191.43 -223.52, 195.98 -233.73, 198.18 -244.45 M188.11 -216.86 C191.44 -226.51, 195.08 -236.52, 199.41 -245.49" stroke="#000000" stroke-width="1" fill="none"></path></g><g transform="translate(357.7704648715685 523) rotate(0 98.88642511367799 -123.0733376502991)"><path d="M174.71 -228.65 C179.81 -232.58, 188.87 -239.19, 198.18 -244.45 M172.09 -229.69 C181.04 -234.71, 190.35 -240.18, 199.41 -245.49" stroke="#000000" stroke-width="1" fill="none"></path></g></g><g stroke-linecap="round" transform="translate(243.7704648715685 494) rotate(0 61.5 83)"><path d="M52.82 1.37 C61.25 -1.57, 70.96 0.56, 79.37 4.25 C87.78 7.94, 96.76 15.09, 103.28 23.51 C109.79 31.92, 115.1 43.29, 118.48 54.74 C121.86 66.19, 124.57 79.97, 123.54 92.21 C122.5 104.45, 117.54 117.78, 112.27 128.19 C106.99 138.59, 99.5 148.21, 91.9 154.65 C84.3 161.08, 75.5 165.86, 66.66 166.78 C57.82 167.69, 47.35 165.08, 38.87 160.14 C30.4 155.21, 21.87 146.38, 15.8 137.16 C9.73 127.94, 4.99 116.73, 2.44 104.83 C-0.11 92.94, -1.4 78.13, 0.5 65.8 C2.41 53.47, 8.21 40.6, 13.89 30.86 C19.58 21.12, 27.72 12.47, 34.61 7.35 C41.51 2.23, 51.48 0.94, 55.27 0.17 C59.06 -0.61, 57.49 1.14, 57.37 2.69 M90.08 8.38 C98.16 12.59, 105.73 22.77, 111.27 32.55 C116.81 42.34, 121.68 54.75, 123.33 67.07 C124.98 79.4, 123.85 94.37, 121.16 106.51 C118.47 118.65, 113.67 130.76, 107.19 139.93 C100.71 149.1, 91.12 157.17, 82.28 161.54 C73.44 165.91, 62.81 167.55, 54.14 166.13 C45.48 164.7, 38.01 159.66, 30.31 152.99 C22.6 146.33, 13.04 136.51, 7.92 126.14 C2.8 115.77, -0.01 103.12, -0.42 90.78 C-0.82 78.45, 2.25 63.45, 5.5 52.13 C8.74 40.81, 12.47 30.98, 19.06 22.87 C25.66 14.76, 36.02 6.97, 45.07 3.48 C54.12 -0.02, 66.03 0.77, 73.38 1.91 C80.73 3.06, 86.77 8.97, 89.17 10.35 C91.58 11.73, 88.38 9.15, 87.8 10.21" stroke="#000000" stroke-width="1" fill="none"></path></g><g transform="translate(278.2704648715685 564.5) rotate(0 27 12.5)"><text x="27" y="18" font-family="Virgil, Segoe UI Emoji" font-size="20px" fill="#000000" text-anchor="middle" style="white-space: pre;" direction="ltr">Store</text></g><g stroke-linecap="round" transform="translate(826.7704648715685 879) rotate(0 138 56)"><path d="M-1.24 0.3 C105.7 -0.53, 213.83 -1.16, 275.77 -0.47 M0.15 -0.07 C62.34 1.18, 125.26 1.72, 276.18 0.11 M276.4 1.06 C276.38 42.36, 274.39 85.75, 275.23 113.44 M275.31 0.89 C276.18 38.12, 277.47 75.14, 275.91 112.03 M276.82 111.56 C166.27 111.94, 55.41 110.99, -1.01 110.58 M275.87 111.78 C187.46 109.47, 99.57 110.38, 0.58 112.7 M-0.99 113.09 C-0.24 80.22, -0.1 50.91, -0.78 0.68 M-0.16 112.21 C0.16 68.13, 0.99 22.36, -0.44 -0.18" stroke="#000000" stroke-width="1" fill="none"></path></g><g transform="translate(931.7704648715685 920) rotate(0 19.5 12.5)"><text x="0" y="18" font-family="Virgil, Segoe UI Emoji" font-size="20px" fill="#000000" text-anchor="start" style="white-space: pre;" direction="ltr">List</text></g><g stroke-linecap="round"><g transform="translate(897.7704648715685 992) rotate(0 54.905549725446235 68.33238780751799)"><path d="M1.08 0.92 C-1.87 21.85, -38.48 104.69, -16.83 126.07 C4.82 147.45, 106.11 128.87, 131 129.21 M0.19 0.35 C-2.45 20.93, -36.75 102.8, -14.55 124.51 C7.64 146.22, 108.77 129.93, 133.38 130.63" stroke="#000000" stroke-width="1" fill="none"></path></g></g><g stroke-linecap="round"><g transform="translate(882.7704648715685 1115) rotate(0 69.63230793685915 69.53163954849242)"><path d="M-1.12 -1.19 C-1.74 20.96, -29.2 111.19, -3.4 132.26 C22.4 153.33, 127.61 126.38, 153.67 125.21 M0.49 0.81 C-0.26 22.62, -29.4 109.39, -4.03 130.27 C21.34 151.16, 126.61 126.84, 152.73 126.12" stroke="#000000" stroke-width="1" fill="none"></path></g></g><g stroke-linecap="round" transform="translate(1035.7704648715685 1216) rotate(0 84 42.5)"><path d="M-0.82 1.56 C53.6 1.72, 106.78 -0.07, 166.46 0.63 M-0.96 0.77 C64.57 1.64, 129.67 1.99, 167.72 0.45 M168.73 -1.15 C167.65 24.08, 168.06 46.68, 167.77 85.58 M168.7 -0.76 C166.6 21.63, 167.65 42.92, 168.08 84.95 M166.41 84.87 C124.03 86.88, 76.45 85.86, 1.46 83.25 M168.29 84.3 C122.08 84.56, 78.18 85.3, 0.63 84.65 M1.85 84.22 C-0.52 54.61, -0.17 21.85, -0.31 1.72 M0.36 85.25 C0.05 67.53, -0.76 50.23, 0.65 0.14" stroke="#000000" stroke-width="1" fill="none"></path></g><g transform="translate(1067.7704648715685 1246) rotate(0 52 12.5)"><text x="52" y="18" font-family="Virgil, Segoe UI Emoji" font-size="20px" fill="#000000" text-anchor="middle" style="white-space: pre;" direction="ltr">Item key=1</text></g><g stroke-linecap="round" transform="translate(1031.7704648715685 1083.5) rotate(0 84 42.5)"><path d="M-0.02 0.08 C43.57 0.69, 85.83 0.59, 168.91 0.73 M-0.07 -0.18 C55.25 0.44, 109.57 0.23, 167.34 -0.4 M168.77 -1.71 C169.76 30.46, 170.02 57.86, 166.84 85.46 M168.18 0.56 C167.51 30.47, 168.28 62.98, 168.98 85.55 M167.45 85.72 C125.95 83.61, 88.14 86.68, 1.44 84.89 M167.86 85.26 C111.16 86.43, 53.71 87.16, -0.96 85.35 M0.16 84.46 C0.5 58.69, -1.21 34.63, -0.67 0.62 M0.26 84.49 C-0.87 56.31, -0.76 26.75, -0.43 0.81" stroke="#000000" stroke-width="1" fill="none"></path></g><g transform="translate(1059.7704648715685 1113.5) rotate(0 56 12.5)"><text x="56" y="18" font-family="Virgil, Segoe UI Emoji" font-size="20px" fill="#000000" text-anchor="middle" style="white-space: pre;" direction="ltr">Item key=2</text></g><g stroke-linecap="round" transform="translate(1523.7704648715685 863.75) rotate(0 138 56)"><path d="M-0.96 0.06 C65.82 1.65, 131.5 1.47, 276.35 -1.43 M0.1 0.01 C57.64 1.47, 116.09 1.18, 276.55 0.46 M277.25 0.71 C277.16 29.51, 277.19 57.95, 276.29 113.66 M276.08 -0.22 C276.19 26.04, 277.31 54.44, 276.84 112.15 M274.96 112.16 C207.09 111.78, 135.38 112.75, -0.75 113.38 M276.4 111.8 C211.76 111.43, 148.81 111.8, -0.71 111.53 M-0.41 113.71 C1.62 84.51, -1.3 59, -1.23 0.18 M-0.24 111.7 C1.24 76.59, 1.36 42.35, -0.98 0.86" stroke="#000000" stroke-width="1" fill="none"></path></g><g transform="translate(1628.7704648715685 904.75) rotate(0 19.5 12.5)"><text x="0" y="18" font-family="Virgil, Segoe UI Emoji" font-size="20px" fill="#000000" text-anchor="start" style="white-space: pre;" direction="ltr">List</text></g><g stroke-linecap="round"><g transform="translate(1596.7704648715685 976.75) rotate(0 54.213556638962814 68.04392741348352)"><path d="M0.05 -0.05 C-2.45 20.88, -37.74 103.25, -15.73 124.8 C6.29 146.36, 107.69 128.75, 132.13 129.27 M-1.39 -1.12 C-3.96 20.06, -38.67 104.26, -16.53 126.24 C5.61 148.21, 106.92 130.36, 131.43 130.73" stroke="#000000" stroke-width="1" fill="none"></path></g></g><g stroke-linecap="round"><g transform="translate(1582.7704648715685 1099.75) rotate(0 69.1451487637164 70.42923691513556)"><path d="M-0.05 0.27 C-0.62 22.29, -29.92 111.36, -4.2 132.13 C21.52 152.9, 128.08 125.96, 154.27 124.89 M-1.53 -0.63 C-2.21 21.6, -31.11 112.69, -5.25 133.74 C20.61 154.78, 127.34 126.8, 153.65 125.63" stroke="#000000" stroke-width="1" fill="none"></path></g></g><g stroke-linecap="round" transform="translate(1735.7704648715685 1329.75) rotate(0 84 42.5)"><path d="M-0.33 0.22 C51.49 -2.23, 100.3 -0.81, 166.42 0.26 M-0.43 -0.65 C51.29 1.05, 100.74 0.4, 168.33 0.63 M169.25 0.16 C168.81 30.18, 167.33 58.94, 166.75 85.16 M168.25 0.57 C168.1 23.81, 166.8 47.9, 168.24 84.33 M166.89 85.32 C114.88 85.99, 62.32 83.97, 0.13 86.04 M168.6 84.56 C120.95 82.85, 75.04 83.02, 0.94 84.79 M-1.79 83.81 C-1.71 52.42, -0.21 17.81, 1.67 -0.47 M0.42 85.62 C-1.24 62.88, -0.01 38.72, -0.5 -0.93" stroke="#000000" stroke-width="1" fill="none"></path></g><g transform="translate(1767.7704648715685 1359.75) rotate(0 52 12.5)"><text x="52" y="18" font-family="Virgil, Segoe UI Emoji" font-size="20px" fill="#000000" text-anchor="middle" style="white-space: pre;" direction="ltr">Item key=1</text></g><g stroke-linecap="round" transform="translate(1735.7704648715685 1188.25) rotate(0 84 42.5)"><path d="M0.45 -1.84 C52.45 -0.61, 106.89 0.07, 168.02 -1.49 M0.71 0.6 C45.48 1.04, 92.13 1.71, 168.36 0.61 M168.29 1.66 C167.34 30, 167.28 56.38, 167.57 83.27 M168.84 0.15 C167.75 18.49, 168.45 35.14, 168.1 85.62 M167.03 86.79 C124.16 85.03, 83.19 86.31, -0.51 83.92 M167.08 84.39 C132.28 83.82, 98.87 84.05, 0.85 85.57 M-1.23 85.18 C1.04 64.53, 2.43 46.94, -0.59 0.6 M-0.98 85.86 C-0.11 61.54, -0.86 37.78, -0.58 -0.26" stroke="#000000" stroke-width="1" fill="none"></path></g><g transform="translate(1763.7704648715685 1218.25) rotate(0 56 12.5)"><text x="56" y="18" font-family="Virgil, Segoe UI Emoji" font-size="20px" fill="#000000" text-anchor="middle" style="white-space: pre;" direction="ltr">Item key=2</text></g><g stroke-linecap="round"><g transform="translate(1578.7704648715685 1235.75) rotate(0 69.04703810514707 69.21081813461808)"><path d="M0.8 -0.37 C0.21 21.53, -29.39 109.72, -3.97 130.96 C21.45 152.19, 127.12 128.05, 153.33 127.03 M-0.24 -1.61 C-0.95 20.44, -30.32 110.81, -4.91 131.95 C20.5 153.09, 125.87 126.33, 152.22 125.23" stroke="#000000" stroke-width="1" fill="none"></path></g></g><g stroke-linecap="round" transform="translate(1732.7704648715685 1067.25) rotate(0 84 42.5)"><path d="M0.05 -1.74 C43.43 2.23, 87.89 -1.43, 166.26 -1.92 M0.42 0.42 C61.29 -0.42, 120.1 -1.22, 167.11 -0.23 M166.43 -0.74 C166.89 20.19, 166.59 42.27, 168.49 84.44 M167.8 0.64 C168.28 24.19, 167.69 49.12, 167.42 84.02 M166.23 85.61 C120.68 83.11, 68.68 81.95, 0.12 83.92 M168.42 85.3 C117.71 84.52, 69.95 84.08, 0.6 84.2 M0.05 86.47 C0.95 50.9, 0.7 20.5, -0.75 -1.82 M0.59 84.2 C-1.43 58.5, -0.52 30.93, 0.21 0.87" stroke="#000000" stroke-width="1" fill="none"></path></g><g transform="translate(1760.7704648715685 1097.25) rotate(0 56 12.5)"><text x="56" y="18" font-family="Virgil, Segoe UI Emoji" font-size="20px" fill="#000000" text-anchor="middle" style="white-space: pre;" direction="ltr">Item key=3</text></g><g stroke-linecap="round" transform="translate(1924.7704648715685 1059) rotate(0 108.5 51.5)"><path d="M107.82 -1.32 C142.03 15.38, 175.81 30.29, 215.27 52.43 M108.98 -0.85 C148.31 20.47, 185.9 38.4, 217.88 52.84 M216.7 53.48 C184.68 66.58, 152.6 82.45, 107.46 102.62 M217.13 51.59 C179.92 69.96, 143.88 85.69, 108.47 102.04 M107.71 102.42 C67.64 82.58, 25.48 61.6, -0.23 52.72 M109.39 103.82 C83.07 91.95, 56.28 78.69, 0.31 51.03 M-0.54 52.64 C23.9 42.18, 46.03 28.62, 108.31 -1.62 M-0.39 52.16 C38.37 33.38, 75.5 15.17, 108.48 0.87" stroke="#000000" stroke-width="1" fill="none"></path></g><g transform="translate(1974.2704648715685 1085.5) rotate(0 59 25)"><text x="59" y="18" font-family="Virgil, Segoe UI Emoji" font-size="20px" fill="#000000" text-anchor="middle" style="white-space: pre;" direction="ltr">new Counter</text><text x="59" y="43" font-family="Virgil, Segoe UI Emoji" font-size="20px" fill="#000000" text-anchor="middle" style="white-space: pre;" direction="ltr">#3</text></g><g stroke-linecap="round" transform="translate(1222.2704648715685 1213.5) rotate(0 108.5 51.5)"><path d="M108.88 0.81 C147.88 17.58, 189.5 38.98, 215.89 53.58 M109.44 0.3 C141.64 14.79, 175.97 32.1, 217.47 52.62 M216.45 50.07 C189.42 65.52, 163.64 76.43, 108.5 102.26 M217.75 52.56 C184.73 66.78, 154.46 80.72, 108.98 102.01 M110.5 104.86 C86.8 91.45, 62.92 79.7, -0.91 52.73 M108.62 102.3 C75.54 87.92, 41.08 71.32, -0.57 51.63 M-0.84 50.83 C33.6 36.49, 65.75 21.27, 109.26 -0.86 M-0.86 52.57 C34.56 35.32, 71.49 19.63, 109.17 -0.73" stroke="#000000" stroke-width="1" fill="none"></path></g><g transform="translate(1292.7704648715685 1240) rotate(0 38 25)"><text x="38" y="18" font-family="Virgil, Segoe UI Emoji" font-size="20px" fill="#000000" text-anchor="middle" style="white-space: pre;" direction="ltr">Counter</text><text x="38" y="43" font-family="Virgil, Segoe UI Emoji" font-size="20px" fill="#000000" text-anchor="middle" style="white-space: pre;" direction="ltr">#1</text></g><g stroke-linecap="round" transform="translate(1216.2704648715685 1073.5) rotate(0 108.5 51.5)"><path d="M107.28 1.15 C142.22 16.51, 180.45 35.66, 217.33 50.54 M108.51 -0.95 C147.9 20.2, 187.5 39.54, 216.56 51.07 M218.24 50.37 C178.86 71.16, 139.52 89.02, 110.48 101.99 M217.6 51.67 C187.91 65.3, 157.96 80.87, 109.65 102.92 M110.27 104.39 C70.94 87.54, 34.47 67.71, 1.97 53.21 M108.66 103.34 C70.07 85.46, 30.17 67.15, 0.94 52.46 M2 50.79 C25.13 38.36, 49.27 28.22, 108.92 -0.7 M0.23 51.38 C34.44 35.79, 70.99 18.79, 109.74 0.25" stroke="#000000" stroke-width="1" fill="none"></path></g><g transform="translate(1286.7704648715685 1100) rotate(0 38 25)"><text x="38" y="18" font-family="Virgil, Segoe UI Emoji" font-size="20px" fill="#000000" text-anchor="middle" style="white-space: pre;" direction="ltr">Counter</text><text x="38" y="43" font-family="Virgil, Segoe UI Emoji" font-size="20px" fill="#000000" text-anchor="middle" style="white-space: pre;" direction="ltr">#2</text></g><g stroke-linecap="round" transform="translate(1913.2704648715685 1323.5) rotate(0 108.5 51.5)"><path d="M110.25 0.7 C146.27 20.8, 187.36 40.52, 215.21 52.22 M109.32 -0.63 C134.46 12.37, 157.5 22.76, 217.66 51.54 M216.8 52.17 C194.66 61.12, 171.6 74.34, 108.68 103.22 M216.16 53 C186.14 66.3, 156.73 81.49, 109.76 103.24 M108.71 104.29 C72.08 85.77, 37.5 69.74, -1 51.15 M109.14 103.54 C73.7 86.71, 38.84 69.45, 0.38 52.59 M-1.91 50.72 C31.27 38.25, 63.38 21.99, 107.77 -1.86 M-0.67 52.05 C32.77 36.27, 64.21 20.23, 109.85 -0.59" stroke="#000000" stroke-width="1" fill="none"></path></g><g transform="translate(1983.7704648715685 1350) rotate(0 38 25)"><text x="38" y="18" font-family="Virgil, Segoe UI Emoji" font-size="20px" fill="#000000" text-anchor="middle" style="white-space: pre;" direction="ltr">Counter</text><text x="38" y="43" font-family="Virgil, Segoe UI Emoji" font-size="20px" fill="#000000" text-anchor="middle" style="white-space: pre;" direction="ltr">#1</text></g><g stroke-linecap="round" transform="translate(1928.2704648715685 1185.5) rotate(0 108.5 51.5)"><path d="M108.65 -0.93 C135.65 11.39, 163.97 26.39, 217.86 50.78 M108.8 -0.84 C132.23 12.13, 155.86 22.3, 217.2 52.52 M215.74 52.58 C180.71 69.43, 142.29 86.88, 107.04 102.86 M217.41 52.99 C190.22 65.54, 164.25 78.16, 109.24 102.03 M108.16 104.86 C86.37 91.88, 63.3 81.32, 1.31 50.21 M108.23 102.49 C69.81 84.3, 29.47 66.71, 0.47 51.1 M-0.95 53.02 C33.06 36.24, 66.41 18.65, 108.32 1.42 M0.56 52.25 C42.25 30.14, 86.06 10.01, 108.96 -0.44" stroke="#000000" stroke-width="1" fill="none"></path></g><g transform="translate(1998.7704648715685 1212) rotate(0 38 25)"><text x="38" y="18" font-family="Virgil, Segoe UI Emoji" font-size="20px" fill="#000000" text-anchor="middle" style="white-space: pre;" direction="ltr">Counter</text><text x="38" y="43" font-family="Virgil, Segoe UI Emoji" font-size="20px" fill="#000000" text-anchor="middle" style="white-space: pre;" direction="ltr">#2</text></g><g transform="translate(364.7704648715685 944) rotate(0 51 12.5)"><text x="0" y="18" font-family="Virgil, Segoe UI Emoji" font-size="20px" fill="#000000" text-anchor="start" style="white-space: pre;" direction="ltr">Composant</text></g><g transform="translate(370.7704648715685 1009) rotate(0 35.5 12.5)"><text x="0" y="18" font-family="Virgil, Segoe UI Emoji" font-size="20px" fill="#000000" text-anchor="start" style="white-space: pre;" direction="ltr">Élément</text></g><g transform="translate(366.7704648715685 1078) rotate(0 43 12.5)"><text x="0" y="18" font-family="Virgil, Segoe UI Emoji" font-size="20px" fill="#000000" text-anchor="start" style="white-space: pre;" direction="ltr">Instance</text></g><g stroke-linecap="round" transform="translate(437.2704648715685 2258.5) rotate(0 98 60)"><path d="M-0.52 -1.13 C58.18 -0.78, 114.49 -0.53, 195.3 -0.6 M-0.59 -0.86 C44.88 -0.05, 88.77 -0.65, 196.73 0.57 M196.47 -1.53 C193.2 48.39, 194.94 94.43, 195.66 120.34 M195.73 0.69 C195.54 41.22, 194.65 82.91, 196.97 119.91 M197.15 120.65 C123.73 122.85, 54.39 121.91, 0.7 120.62 M196.91 119.82 C143.54 118.38, 90.6 117.48, -0.82 120.83 M-0.87 119.55 C1.05 78.34, -0.46 35.29, 1.53 0.88 M0.74 120.83 C-0.36 74.14, 0.41 30.34, 0.44 0.38" stroke="#000000" stroke-width="1" fill="none"></path></g><g transform="translate(514.2704648715685 2306) rotate(0 21 12.5)"><text x="21" y="18" font-family="Virgil, Segoe UI Emoji" font-size="20px" fill="#000000" text-anchor="middle" style="white-space: pre;" direction="ltr">Main</text></g><g stroke-linecap="round" transform="translate(551.2704648715685 2797.5) rotate(0 94.5 53.5)"><path d="M-1.23 1.82 C67.12 0.27, 134.01 0.01, 188.42 -1.67 M0.68 0.26 C39.46 -0.29, 76.32 1.18, 189.45 -0.84 M189.05 -0.25 C187.06 39.27, 190.06 83.24, 190.5 107.91 M189.19 -0.87 C190.75 34.52, 190.23 68.78, 188.29 107.03 M190.56 105.45 C141.99 104.83, 97.41 107.1, 0.3 108.55 M188.4 106.35 C120.38 108.29, 50.96 108.85, -0.8 107.01 M0.43 107.58 C0.46 73.98, -2.02 43.84, -1.57 1.37 M0.38 107.98 C-0.29 76.18, 0.7 44.49, -0.49 -0.12" stroke="#000000" stroke-width="1" fill="none"></path></g><g transform="translate(578.7704648715685 2838.5) rotate(0 67 12.5)"><text x="67" y="18" font-family="Virgil, Segoe UI Emoji" font-size="20px" fill="#000000" text-anchor="middle" style="white-space: pre;" direction="ltr">CountersPage</text></g><g stroke-linecap="round" transform="translate(653.2704648715685 2920.5) rotate(0 115.5 54)"><path d="M0.01 -0.05 C48.62 2.06, 96.02 2.06, 231.81 -1.04 M0.58 -0.09 C51.65 1.1, 103.71 2.37, 230.7 0.09 M230.76 -0.67 C229.75 38.78, 229.53 77.87, 229.05 109.02 M231.02 0.29 C231.01 33.6, 232.25 69.05, 230.14 108.28 M229.66 109.34 C163.14 110.13, 92.42 108.02, -1.67 107.92 M230.85 108.74 C146.49 106.74, 60.59 107.03, 0.65 108.12 M0.59 109.82 C1.68 83.87, -1.49 61.6, -0.97 1.05 M0.45 107.46 C-0.59 73.43, -0.34 40.28, 0.08 0.24" stroke="#000000" stroke-width="1" fill="none"></path></g><g transform="translate(711.7704648715685 2962) rotate(0 57 12.5)"><text x="57" y="18" font-family="Virgil, Segoe UI Emoji" font-size="20px" fill="#000000" text-anchor="middle" style="white-space: pre;" direction="ltr">CounterList</text></g><g stroke-linecap="round" transform="translate(751.2704648715685 3051.5) rotate(0 126 52.5)"><path d="M0.24 -1.43 C79.85 -0.15, 159.57 -0.09, 253.54 -0.98 M0.43 0.11 C59.19 1.57, 119.2 0.55, 251.28 -0.53 M252.49 -1.14 C254.02 26.32, 252.53 51.14, 253.48 103.97 M252.3 0.56 C252.36 32.37, 251.27 64.35, 251.16 105.08 M251.81 104.11 C199.77 106.29, 147.4 105.92, -0.3 105.7 M252.49 105.62 C191.69 104.73, 130.12 104.62, -0.3 104.86 M-1.76 103.04 C1.04 78.09, 0.13 47.53, 1.97 -1.41 M0 105.29 C0.12 68, -0.99 31.11, 0.32 0.89" stroke="#000000" stroke-width="1" fill="none"></path></g><g transform="translate(839.2704648715685 3091.5) rotate(0 38 12.5)"><text x="38" y="18" font-family="Virgil, Segoe UI Emoji" font-size="20px" fill="#000000" text-anchor="middle" style="white-space: pre;" direction="ltr">Counter</text></g><g stroke-linecap="round" transform="translate(755.2704648715685 3179) rotate(0 126 52.5)"><path d="M-0.95 -1.26 C91.51 2.59, 180.74 2.3, 250.74 -1.46 M0.77 0.36 C71.62 1.19, 144.87 1.4, 251.25 -0.05 M251.64 0.61 C251 22.82, 253.48 48.23, 252.05 103.79 M251.63 -0.19 C252.99 41.43, 252.55 82.9, 252.72 105.8 M253.06 103.94 C164.8 105.02, 80.18 106.26, 0.39 104.24 M252.27 105.28 C161.46 104.62, 70.63 104.55, -0.81 104.45 M-1.57 106.85 C1.27 65.15, 2.43 22.69, -0.15 -1.32 M0.37 105.83 C1.08 82.85, -0.17 60.46, 0.52 -0.95" stroke="#000000" stroke-width="1" fill="none"></path></g><g transform="translate(843.2704648715685 3219) rotate(0 38 12.5)"><text x="38" y="18" font-family="Virgil, Segoe UI Emoji" font-size="20px" fill="#000000" text-anchor="middle" style="white-space: pre;" direction="ltr">Counter</text></g><g transform="translate(830.2704648715685 3308.5) rotate(0 8 12.5)"><text x="0" y="18" font-family="Virgil, Segoe UI Emoji" font-size="20px" fill="#000000" text-anchor="start" style="white-space: pre;" direction="ltr">...</text></g><g stroke-linecap="round" transform="translate(553.2704648715685 2395.5) rotate(0 96 51.5)"><path d="M0.66 1.28 C47.46 1.3, 92.33 1.76, 190.42 0.61 M0.67 -0.67 C43.48 2.49, 85.35 2.31, 191.11 0.68 M193.06 -1.22 C192.85 24.29, 193.19 51.13, 190.37 102.72 M192.14 0.77 C192.36 23.6, 192.17 48.23, 192.52 103.54 M193.5 103.83 C120.89 102.01, 53.38 102.7, -1.86 104.87 M191.7 102.26 C135.82 104.77, 80.23 104.5, 0.52 102.83 M-0.86 101.54 C0.69 72.81, -1 41.87, 1.36 -0.34 M0.17 102.86 C0.98 67.66, 0.65 33.29, 0.66 0.86" stroke="#000000" stroke-width="1" fill="none"></path></g><g transform="translate(585.7704648715685 2434.5) rotate(0 63.5 12.5)"><text x="63.5" y="18" font-family="Virgil, Segoe UI Emoji" font-size="20px" fill="#000000" text-anchor="middle" style="white-space: pre;" direction="ltr">WeatherPage</text></g><g stroke-linecap="round" transform="translate(653.2704648715685 2522.5) rotate(0 121 49.5)"><path d="M-1.18 -1.41 C63.9 -0.46, 129.97 1.09, 241.94 1.55 M-0.09 -0.06 C81.72 -0.06, 162.27 -1.34, 242.01 -0.66 M242.27 1.81 C240.13 21.25, 241.38 40.9, 242.3 100.86 M241.43 -0.85 C240.37 28.62, 241.88 57.45, 242.93 99.4 M242.12 100.45 C180.04 98.49, 118.15 96.3, -1.15 99.64 M242.83 99.4 C146.46 100, 51.53 98.95, 0.31 99.08 M-0.66 100.23 C-0.97 67.71, -1.01 31.87, -1.48 -0.81 M-0.59 99.98 C-0.67 59.56, 0.33 21.53, -0.11 0.59" stroke="#000000" stroke-width="1" fill="none"></path></g><g transform="translate(715.2704648715685 2559.5) rotate(0 59 12.5)"><text x="59" y="18" font-family="Virgil, Segoe UI Emoji" font-size="20px" fill="#000000" text-anchor="middle" style="white-space: pre;" direction="ltr">CitySelector</text></g><g stroke-linecap="round" transform="translate(653.2704648715685 2627.5) rotate(0 121 47.5)"><path d="M1.53 1.03 C49.57 -0.17, 103.98 0.71, 241.02 1.56 M-0.82 0.72 C77.59 -0.56, 156.72 -1.93, 242.76 0.05 M243.49 1.08 C243.11 28.88, 243.05 58.65, 240.13 93.97 M242.27 0.8 C241.93 37.66, 241.16 75.38, 242.69 94.97 M242.76 94.58 C179.21 95.08, 117.08 96.65, -1.26 94.68 M241.48 94.28 C148.66 94.75, 54.69 93.26, 0.04 94.51 M-1.23 93.07 C0.35 66.74, 1.17 35.84, 1.03 -1.08 M0.4 94.7 C-0.55 63.01, 0.84 30.7, -0.19 -0.54" stroke="#000000" stroke-width="1" fill="none"></path></g><g transform="translate(702.7704648715685 2662.5) rotate(0 71.5 12.5)"><text x="71.5" y="18" font-family="Virgil, Segoe UI Emoji" font-size="20px" fill="#000000" text-anchor="middle" style="white-space: pre;" direction="ltr">WeatherWidget</text></g><g stroke-linecap="round"><g transform="translate(497.2704648715685 2380.5) rotate(0 27.688100182703323 32.45653623266685)"><path d="M0.16 -0.52 C0.29 9.15, -9.04 48.73, 0.91 58.96 C10.87 69.18, 50.3 60.42, 59.88 60.85 M-1.22 1.82 C-1.18 11.61, -9.69 50.43, 0.45 60.47 C10.58 70.51, 49.92 62.29, 59.58 62.08" stroke="#000000" stroke-width="1" fill="none"></path></g></g><g stroke-linecap="round"><g transform="translate(590.2704648715685 2502.5) rotate(0 30.106013863372823 38.997104038006)"><path d="M-0.35 0.87 C0.37 12.62, -6.39 58.69, 4.01 71.06 C14.4 83.43, 52.28 74.7, 62.02 75.1 M1.67 0.28 C2.26 11.67, -6.87 57.32, 3.06 69.5 C13 81.67, 51.28 72.54, 61.27 73.33" stroke="#000000" stroke-width="1" fill="none"></path></g></g><g stroke-linecap="round"><g transform="translate(585.2704648715685 2504.5) rotate(0 30.96187665128963 90.74475533611371)"><path d="M0.76 0.79 C0.98 28.27, -10.92 134.92, 0.19 164.1 C11.3 193.28, 56.14 173.87, 67.41 175.86 M-0.3 0.15 C-0.12 27.83, -11.85 135.77, -0.66 165.17 C10.53 194.57, 55.34 174.66, 66.86 176.57" stroke="#000000" stroke-width="1" fill="none"></path></g></g><g stroke-linecap="round"><g transform="translate(602.2704648715685 2904.5) rotate(0 19.947102774927828 42.19780287283925)"><path d="M0.3 -0.87 C0.07 11.46, -10.01 60.96, -2.4 75 C5.22 89.05, 38.21 82.11, 45.96 83.42 M-1.01 1.3 C-1.25 14.35, -10.81 62.69, -3.03 76.54 C4.76 90.4, 37.87 83.3, 45.7 84.44" stroke="#000000" stroke-width="1" fill="none"></path></g></g><g stroke-linecap="round"><g transform="translate(694.2704648715685 3029.5) rotate(0 23.865302193892205 39.4982965458305)"><path d="M1.12 0.11 C0.55 12.2, -11.42 58.93, -2.56 71.63 C6.31 84.33, 44.77 75.43, 54.32 76.33 M0.25 -0.88 C-0.52 11.46, -12.18 59.94, -3.27 72.97 C5.64 86, 43.95 76.44, 53.72 77.29" stroke="#000000" stroke-width="1" fill="none"></path></g></g><g stroke-linecap="round"><g transform="translate(678.2704648715685 3032.5) rotate(0 37.51048167948147 110.96886578289104)"><path d="M0.13 1.04 C1.02 34.7, -6.98 166.64, 5.96 202.1 C18.9 237.56, 65.75 211.82, 77.79 213.79 M-1.26 0.54 C-0.59 34.41, -8.04 168.47, 4.99 203.69 C18.02 238.91, 64.66 210.51, 76.92 211.86" stroke="#000000" stroke-width="1" fill="none"></path></g></g><g stroke-linecap="round"><g transform="translate(667.2704648715685 3028.5) rotate(0 71.32518966445923 162.73723974106315)"><path d="M-0.26 -0.3 C0.36 50.33, -22.2 252.69, 3.09 303.32 C28.38 353.96, 126.82 303.32, 151.49 303.51 M1.81 -1.5 C2.85 49.31, -19.45 253.49, 5.32 304.5 C30.1 355.51, 126.19 304.36, 150.45 304.57" stroke="#000000" stroke-width="1" fill="none"></path></g></g><g stroke-linecap="round"><g transform="translate(485.2704648715685 2381.5) rotate(0 31.075581764185614 224.0549055803349)"><path d="M-0.91 0.31 C-0.42 69.68, -9.27 346.67, 1.87 416.28 C13.02 485.89, 55.35 417.83, 65.95 417.95 M0.81 -0.57 C1.23 68.93, -9.87 347.47, 0.86 417.44 C11.58 487.41, 54.39 419.22, 65.17 419.24" stroke="#000000" stroke-width="1" fill="none"></path></g></g><g stroke-linecap="round" transform="translate(984.2704648715685 2538.5) rotate(0 87.5 46.5)"><path d="M1.43 1.13 C59.68 1.38, 117.36 -0.19, 176.67 1.87 M1 0.81 C40.44 1.43, 80.89 0.91, 175.83 -0.61 M174.4 -0.99 C175.49 21.15, 172.44 45.52, 174.06 94.25 M175.15 -0.34 C174.86 23.73, 174.78 48.53, 175.62 93.08 M173.92 94.7 C114.81 93.61, 53.17 94.37, -0.75 91.44 M175.28 92.79 C121.19 92.2, 65.84 92.79, -0.88 92.19 M-1.4 91.83 C0.04 69.21, 0.37 46.29, -0.62 0.53 M-0.56 92.02 C-0.08 74.37, 0.75 55.98, -0.84 -0.21" stroke="#000000" stroke-width="1" fill="none"></path></g><g transform="translate(1042.2704648715685 2572.5) rotate(0 29.5 12.5)"><text x="29.5" y="18" font-family="Virgil, Segoe UI Emoji" font-size="20px" fill="#000000" text-anchor="middle" style="white-space: pre;" direction="ltr">select</text></g><g stroke-linecap="round"><g transform="translate(898.2704648715685 2578.5) rotate(0 42.08278199207501 1.4068065012572788)"><path d="M0.58 -0.88 C14.59 -0.34, 70.75 1.48, 84.74 2.1 M-0.58 1.28 C13.28 2.12, 70.08 3.75, 84.18 3.69" stroke="#000000" stroke-width="1" fill="none"></path></g></g><g transform="translate(1062.2704648715685 2511.5) rotate(0 43.5 12.5)"><text x="0" y="18" font-family="Virgil, Segoe UI Emoji" font-size="20px" fill="#000000" text-anchor="start" style="white-space: pre;" direction="ltr">onChange</text></g><g stroke-linecap="round"><g transform="translate(473.2704648715685 2377.5) rotate(0 10.75837228638747 585.2826691557791)"><path d="M-1.19 -1.17 C-7.01 174.17, -43.57 857.83, -34.07 1051.08 C-24.57 1244.34, 40.54 1140.45, 55.81 1158.35 M0.39 0.83 C-5.68 176.47, -44.67 859.58, -35.05 1052.66 C-25.44 1245.75, 42.56 1141.55, 58.08 1159.33" stroke="#000000" stroke-width="1" fill="none"></path></g></g><g stroke-linecap="round" transform="translate(529.2704648715685 3492.5) rotate(0 105.5 60.5)"><path d="M0.67 -1.02 C53.44 1.45, 105.27 -0.36, 209.91 -1.35 M0.76 -0.11 C63.56 0.79, 125.71 1.7, 211.34 -0.7 M211.85 1.36 C209.81 41.05, 211.39 82.55, 212.55 121.01 M210.05 -0.71 C209.93 31.37, 209.39 64.26, 211.33 121.08 M210.52 121.57 C168.4 121.57, 123.97 121.47, 1.61 121.95 M211.16 120.73 C132.24 121.78, 54.45 121.93, -0.58 121.82 M0.17 121.84 C-0.29 86.27, 0.91 50.53, 0.7 0.33 M-0.93 121.39 C1.12 83.99, -0.2 49.14, -0.5 -0.19" stroke="#000000" stroke-width="1" fill="none"></path></g><g transform="translate(588.2704648715685 3540.5) rotate(0 46.5 12.5)"><text x="46.5" y="18" font-family="Virgil, Segoe UI Emoji" font-size="20px" fill="#000000" text-anchor="middle" style="white-space: pre;" direction="ltr">HomePage</text></g><g stroke-linecap="round" transform="translate(283.2704648715685 1955.5) rotate(0 107 59.5)"><path d="M0.46 -1.18 C71.33 -1.18, 139.67 -0.22, 214.06 1.63 M-0.21 0.72 C51.51 1.71, 102.38 1.1, 213.72 -0.33 M212.19 -1.7 C215.74 25.65, 212.36 50.26, 212.34 118.06 M214.59 0.96 C215.27 31.61, 214.88 60.6, 213.41 119.71 M212.65 119.82 C144.47 118.33, 76.44 120.04, 0.87 118.76 M213.76 118.49 C163.15 119.74, 111.02 121.4, 0.83 118.56 M0.48 118.67 C-1.33 85.55, -1.37 50.17, 1.66 -1.52 M0.98 119.27 C1.42 90.55, 1.22 61.19, 0.85 -0.68" stroke="#000000" stroke-width="1" fill="none"></path></g><g transform="translate(373.7704648715685 2002.5) rotate(0 16.5 12.5)"><text x="16.5" y="18" font-family="Virgil, Segoe UI Emoji" font-size="20px" fill="#000000" text-anchor="middle" style="white-space: pre;" direction="ltr">App</text></g><g stroke-linecap="round" transform="translate(437.2704648715685 2105.5) rotate(0 96.5 54.5)"><path d="M0.93 -0.13 C74.4 2.94, 152.62 2.48, 192.72 -1.21 M-0.58 0.47 C52.48 0, 107.77 1.48, 192.5 -0.1 M192.67 -0.99 C194.09 34.81, 193.21 73.34, 191.48 107.87 M193.27 0.78 C194.04 27.42, 193.68 54.53, 192.32 109.83 M194.11 108.97 C148.47 110.06, 103.06 111.32, -0.58 108.04 M193.84 109.68 C141.93 111.71, 89.76 111.19, 0.73 109.59 M1.37 107.38 C-1.05 72.37, 0.4 33.11, 0.16 1.42 M-0.31 108.73 C-0.16 82.77, 0.58 55.52, -0.44 -0.51" stroke="#000000" stroke-width="1" fill="none"></path></g><g transform="translate(500.7704648715685 2147.5) rotate(0 33 12.5)"><text x="33" y="18" font-family="Virgil, Segoe UI Emoji" font-size="20px" fill="#000000" text-anchor="middle" style="white-space: pre;" direction="ltr">Header</text></g><g stroke-linecap="round"><g transform="translate(385.2704648715685 2075.5) rotate(0 24.091586091883357 36.82285821433652)"><path d="M1.14 0.67 C1.1 10.67, -9.75 48.44, -1.02 60.6 C7.71 72.77, 44.32 71.67, 53.54 73.68 M0.27 -0.03 C0.14 9.57, -10.69 46.85, -1.98 58.8 C6.73 70.75, 43.09 69.23, 52.53 71.69" stroke="#000000" stroke-width="1" fill="none"></path></g></g><g stroke-linecap="round"><g transform="translate(363.2704648715685 2076.5) rotate(0 30.476871228215288 135.5425659312491)"><path d="M-0.25 1.01 C-1.27 42.98, -18.1 209.66, -6.11 251.2 C5.88 292.74, 58.69 250.17, 71.7 250.26 M1.81 0.5 C0.63 42.65, -18.69 210.54, -7.11 252.32 C4.47 294.1, 58 251.64, 71.3 251.19" stroke="#000000" stroke-width="1" fill="none"></path></g></g><g stroke-linecap="round" transform="translate(1555.7704648715685 2325.5) rotate(0 422.5 279)"><path d="M0.45 0.06 C328.71 -3.49, 656.32 -3.44, 845.27 0.2 M0.4 0.3 C222.11 -0.11, 443.98 -0.22, 845.04 0.32 M845.2 -0.71 C843.7 201.51, 843.58 403.73, 845.76 557.54 M845.26 0.4 C843.71 175.44, 844.16 350.88, 845.02 558.25 M845.68 558.02 C663.84 554.03, 484.17 554.62, -0.5 558.58 M844.6 557.67 C596.12 557, 348.29 557.03, 0.07 557.91 M-0.03 557.49 C-0.01 361.91, -0.59 166.54, 0.35 -0.44 M-0.06 557.75 C1.55 414.07, 1.38 270.37, -0.39 -0.18" stroke="#000000" stroke-width="1" fill="none"></path></g><g transform="translate(1597.2704648715685 2283.5) rotate(0 16.5 12.5)"><text x="0" y="18" font-family="Virgil, Segoe UI Emoji" font-size="20px" fill="#000000" text-anchor="start" style="white-space: pre;" direction="ltr">App</text></g><g stroke-linecap="round" transform="translate(1576.7704648715685 2344.5) rotate(0 396 76)"><path d="M-0.34 -0.11 C313.45 0.33, 625.18 -0.71, 792.23 -0.52 M-0.24 -0.38 C241.02 2.74, 481.11 2.34, 792.22 -0.1 M790.31 -0.68 C791.12 34.45, 791.14 72.97, 793.32 152.91 M791.97 -0.59 C791.6 47.49, 791.54 95.83, 791.17 152.02 M791.45 151.81 C520.06 150.17, 248.39 150.73, -0.31 152.6 M791.95 151.63 C631.27 150.68, 470.62 150.11, 0.31 151.64 M0.72 151.48 C0.07 105.28, -1.36 54.51, 0.38 -1.89 M-0.51 151.87 C-0.64 106.61, -0.46 62.34, 0.94 -0.48" stroke="#000000" stroke-width="1" fill="none"></path></g><g transform="translate(2261.7704648715685 2498.5) rotate(0 33 12.5)"><text x="0" y="18" font-family="Virgil, Segoe UI Emoji" font-size="20px" fill="#000000" text-anchor="start" style="white-space: pre;" direction="ltr">Header</text></g><g transform="translate(1610.7704648715685 2403.5) rotate(0 222 12.5)"><text x="0" y="18" font-family="Virgil, Segoe UI Emoji" font-size="20px" fill="#000000" text-anchor="start" style="white-space: pre;" direction="ltr">[Home]     [Counters (42)]       [Weather]</text></g><g stroke-linecap="round" transform="translate(1590.7704648715685 2545.5) rotate(0 392.5 135.5)"><path d="M-0.17 -0.45 C216.31 3.02, 431.72 1.96, 784.35 0.48 M0.21 0.13 C312.84 -0.36, 626.05 -0.16, 785.23 -0.07 M785.33 -0.74 C784.67 75.06, 786.21 151.77, 786.41 271.59 M785.72 -0.58 C784.8 84.35, 784.82 169.1, 785.13 271.52 M785.02 271.8 C545.79 272.44, 308.48 273.51, 0.6 270.73 M785.2 270.93 C566.02 269.13, 347.23 269, -0.07 270.74 M0.43 272.02 C-0.12 194.93, -1.15 119.54, 0.81 0.83 M0.65 271.43 C0.87 187.55, 0.05 105.22, 0.27 -0.61" stroke="#000000" stroke-width="1" fill="none"></path></g><g transform="translate(1598.7704648715685 2847.5) rotate(0 232 12.5)"><text x="0" y="18" font-family="Virgil, Segoe UI Emoji" font-size="20px" fill="#000000" text-anchor="start" style="white-space: pre;" direction="ltr">Main   { page: "home" | "weather" | "counters" }</text></g><g stroke-linecap="round"><g transform="translate(642.2704648715685 2129.5) rotate(0 74.2621385538252 -22.06099328994742)"><path d="M-0.76 0.78 C23.6 -6.64, 122.32 -37.57, 147.06 -44.91 M1.04 0.15 C25.7 -7.12, 124.99 -36.28, 149.28 -43.84" stroke="#000000" stroke-width="1" fill="none"></path></g></g><g stroke-linecap="round" transform="translate(793.2704648715685 2053.5) rotate(0 82.5 34)"><path d="M1.39 -1.73 C44.96 0.57, 84.37 0.1, 163.4 -0.19 M0.63 -0.05 C53.52 -1.68, 105.33 -0.31, 164.08 -0.55 M163.71 -1.83 C164.21 23.46, 163.56 47.8, 165.05 69.04 M165.57 -0.86 C165.05 13.99, 164.14 27.05, 164.32 68.45 M166.61 69.6 C102.62 68, 35.5 68.57, 0.05 67.29 M165.59 67.13 C98.9 68.38, 35.37 68.75, -0.37 67.14 M0.23 66.66 C0.17 49.65, -2.33 34.16, -0.97 -1.86 M1 67.5 C1.52 46.2, 0.88 25.1, -0.94 0.33" stroke="#000000" stroke-width="1" fill="none"></path></g><g transform="translate(805.7704648715685 2076) rotate(0 70 12.5)"><text x="70" y="18" font-family="Virgil, Segoe UI Emoji" font-size="20px" fill="#000000" text-anchor="middle" style="white-space: pre;" direction="ltr">NavLink "home"</text></g><g stroke-linecap="round" transform="translate(790.7704648715685 2134.5) rotate(0 98.5 34)"><path d="M1.8 1.86 C55.12 0.72, 108.57 1.06, 195.65 -0.84 M0.96 0.14 C51.73 1.29, 102.04 -0.09, 196.92 0.98 M196.25 1.22 C197.14 22.58, 195.41 45.29, 196.49 66.09 M197.11 -0.81 C197.14 27.62, 196.17 54.21, 196.35 68.33 M196.78 68.02 C150.14 67.86, 103.1 67.66, -1.11 66.72 M196.79 68.01 C119.75 67.59, 41.77 67.32, -0.82 68.7 M-0.5 69.91 C-0.85 53.4, 1.99 35.27, -1.52 -0.79 M0.56 68.17 C0.54 42.98, -0.45 18.19, -0.75 0.39" stroke="#000000" stroke-width="1" fill="none"></path></g><g transform="translate(800.7704648715685 2156) rotate(0 89.5 12.5)"><text x="89.5" y="18" font-family="Virgil, Segoe UI Emoji" font-size="20px" fill="#000000" text-anchor="middle" style="white-space: pre;" direction="ltr">NavLink "counters"</text></g><g stroke-linecap="round" transform="translate(787.7704648715685 2215.5) rotate(0 96 34)"><path d="M-1.28 1.83 C66.94 -0.21, 133.17 1.09, 191.81 1.69 M0.7 -0.6 C39.17 1.67, 79.23 2.52, 191.38 0.85 M191.21 1.34 C192.98 25.5, 193.07 52.05, 193.78 67.87 M192.39 -0.18 C191.36 19.52, 192.08 40, 192.54 68.66 M192.18 67.96 C143.79 70.29, 92.43 69.21, -1.99 69.65 M192.46 67.51 C147.29 69.09, 102.94 70.16, -0.42 67.12 M0.77 66.81 C1.19 41.6, -0.12 15.24, -1.87 1.64 M0.72 68.53 C-1.14 48.61, 0.14 28.48, -0.97 -0.47" stroke="#000000" stroke-width="1" fill="none"></path></g><g transform="translate(799.2704648715685 2237) rotate(0 86 12.5)"><text x="86" y="18" font-family="Virgil, Segoe UI Emoji" font-size="20px" fill="#000000" text-anchor="middle" style="white-space: pre;" direction="ltr">NavLink "weather"</text></g><g stroke-linecap="round"><g transform="translate(641.2704648715685 2156.5) rotate(0 71.16896836292466 6.661846735435574)"><path d="M1.13 -0.06 C24.89 2.53, 118.71 12, 142.07 14.46 M0.27 -1.14 C23.92 1.18, 117.24 10.28, 141.16 12.58" stroke="#000000" stroke-width="1" fill="none"></path></g></g><g stroke-linecap="round"><g transform="translate(644.2704648715685 2174.5) rotate(0 65.1058925343724 39.77852668996434)"><path d="M0.7 0.18 C22.52 13.53, 109.02 66.93, 130.61 80.33 M-0.4 -0.78 C21.36 12.18, 108.31 65.17, 129.98 78.39" stroke="#000000" stroke-width="1" fill="none"></path></g></g><g stroke-linecap="round"><g transform="translate(1104.7704648715685 298) rotate(0 1.4776590311201403 60.47909119974358)"><path d="M-0.99 -1.03 C-0.57 19.06, 1.28 100.37, 1.84 120.98 M0.7 1.04 C1.52 21.21, 3.84 102.05, 3.94 121.99" stroke="#000000" stroke-width="1" fill="none"></path></g><g transform="translate(1104.7704648715685 298) rotate(0 1.4776590311201403 60.47909119974358)"><path d="M-8.57 92.06 C-5.8 99.92, -0.38 107.34, 5.36 121.73 M-7.72 94.6 C-3.15 104.19, 0.49 112.21, 3.03 121.82" stroke="#000000" stroke-width="1" fill="none"></path></g><g transform="translate(1104.7704648715685 298) rotate(0 1.4776590311201403 60.47909119974358)"><path d="M11.95 91.67 C9.7 99.46, 10.1 106.98, 5.36 121.73 M12.79 94.21 C10.59 103.77, 7.46 111.92, 3.03 121.82" stroke="#000000" stroke-width="1" fill="none"></path></g></g><g stroke-linecap="round"><g transform="translate(843.2704648715685 2052) rotate(0 -108.55841668254232 -14.956146246939852)"><path d="M0.95 0.96 C-22.19 -10.69, -103.54 -76.4, -140.01 -69.89 C-176.48 -63.39, -204.56 21.94, -217.89 39.98 M0 0.42 C-23.21 -11.11, -104.62 -75.11, -140.96 -68.82 C-177.31 -62.54, -204.86 20.17, -218.07 38.15" stroke="#c92a2a" stroke-width="1" fill="none"></path></g><g transform="translate(843.2704648715685 2052) rotate(0 -108.55841668254232 -14.956146246939852)"><path d="M-212.49 8.4 C-216.4 16.44, -214.09 19.09, -219.19 37.1 M-214.52 8.4 C-214.98 20.05, -216.82 29.98, -217.94 38.23" stroke="#c92a2a" stroke-width="1" fill="none"></path></g><g transform="translate(843.2704648715685 2052) rotate(0 -108.55841668254232 -14.956146246939852)"><path d="M-194.31 17.92 C-201.97 24.14, -203.42 24.82, -219.19 37.1 M-196.34 17.91 C-203.63 25.86, -212.34 32.19, -217.94 38.23" stroke="#c92a2a" stroke-width="1" fill="none"></path></g></g><g stroke-linecap="round"><g transform="translate(582.2704648715685 2090) rotate(0 -37.877379698003864 -55.53524436050566)"><path d="M-0.89 1.1 C-1.03 -15.41, 11.55 -81.8, -1.98 -100.01 C-15.51 -118.22, -69.11 -106.74, -82.09 -108.15 M0.84 0.64 C1.17 -16.12, 13.65 -83.16, 0.22 -101.61 C-13.22 -120.06, -65.95 -108.53, -79.77 -110.04" stroke="#c92a2a" stroke-width="1" fill="none"></path></g><g transform="translate(582.2704648715685 2090) rotate(0 -37.877379698003864 -55.53524436050566)"><path d="M-50.26 -123.27 C-56.24 -121.28, -62.17 -115.21, -78.83 -109.74 M-51.12 -122.43 C-59.32 -119.12, -64.94 -116.36, -80 -111" stroke="#c92a2a" stroke-width="1" fill="none"></path></g><g transform="translate(582.2704648715685 2090) rotate(0 -37.877379698003864 -55.53524436050566)"><path d="M-49.28 -102.78 C-55.31 -105.01, -61.44 -103.17, -78.83 -109.74 M-50.14 -101.93 C-58.47 -103.44, -64.33 -105.5, -80 -111" stroke="#c92a2a" stroke-width="1" fill="none"></path></g></g><g stroke-linecap="round"><g transform="translate(486.2704648715685 1939) rotate(0 -171.95607154379317 195.70011902494173)"><path d="M-0.58 0.48 C-29.42 -14.72, -116.41 -104.03, -173.12 -91.39 C-229.83 -78.76, -322.66 18.61, -340.82 76.28 C-358.98 133.96, -317.05 187.65, -282.08 254.68 C-247.11 321.71, -169.59 452.43, -131 478.46 C-92.42 504.49, -64.06 421.96, -50.59 410.84 M1.31 -0.32 C-27.6 -15.33, -116.56 -102.99, -173.61 -90.06 C-230.65 -77.14, -322.83 19.61, -340.97 77.23 C-359.1 134.84, -317.68 188.63, -282.41 255.61 C-247.13 322.59, -167.64 453.41, -129.34 479.1 C-91.05 504.78, -65.38 421.1, -52.63 409.72" stroke="#c92a2a" stroke-width="1" fill="none"></path></g><g transform="translate(486.2704648715685 1939) rotate(0 -171.95607154379317 195.70011902494173)"><path d="M-57.58 440.63 C-57.29 432.49, -56.13 420.06, -53.16 408.05 M-57.71 439.82 C-55.67 429.56, -54.42 420.17, -52.49 409.58" stroke="#c92a2a" stroke-width="1" fill="none"></path></g><g transform="translate(486.2704648715685 1939) rotate(0 -171.95607154379317 195.70011902494173)"><path d="M-75.16 430.05 C-69.71 425.11, -63.39 415.79, -53.16 408.05 M-75.3 429.24 C-67.27 422.58, -60.06 416.77, -52.49 409.58" stroke="#c92a2a" stroke-width="1" fill="none"></path></g></g><g stroke-linecap="round" transform="translate(1146.2704648715685 1882) rotate(0 120 87.5)"><path d="M149.22 2.1 C163.42 3.38, 178.3 10.32, 190.48 17.04 C202.67 23.76, 214.42 33.15, 222.34 42.44 C230.25 51.73, 235.47 62.22, 238 72.77 C240.52 83.32, 240.52 94.84, 237.48 105.73 C234.44 116.62, 228.25 129.12, 219.77 138.12 C211.29 147.11, 199.25 153.88, 186.6 159.72 C173.95 165.56, 158.5 170.85, 143.86 173.16 C129.23 175.47, 113.63 175.43, 98.76 173.59 C83.9 171.75, 67.47 167.88, 54.68 162.12 C41.9 156.36, 30.63 148.27, 22.05 139.04 C13.47 129.81, 6.62 117.51, 3.21 106.73 C-0.2 95.96, -0.72 85.09, 1.58 74.37 C3.88 63.66, 9.35 51.97, 17.02 42.45 C24.7 32.94, 35.82 23.78, 47.63 17.28 C59.43 10.79, 73.29 6.26, 87.86 3.49 C102.42 0.72, 123.08 0.54, 135.02 0.67 C146.96 0.81, 153.94 2.81, 159.49 4.3 C165.04 5.8, 169 8.29, 168.33 9.64 M167.63 7.1 C181.41 9.72, 194.85 16.37, 205.2 24.01 C215.55 31.65, 223.89 42.9, 229.75 52.95 C235.61 63.01, 240.13 73.56, 240.38 84.33 C240.62 95.11, 236.54 107.21, 231.24 117.59 C225.94 127.96, 218.57 138.51, 208.57 146.58 C198.58 154.66, 184.84 161.33, 171.27 166.04 C157.7 170.76, 142.04 174.17, 127.18 174.88 C112.32 175.59, 96.53 173.83, 82.09 170.31 C67.65 166.8, 52.12 160.91, 40.56 153.79 C28.99 146.67, 19.44 137.52, 12.72 127.58 C6 117.64, 1.28 105.19, 0.24 94.15 C-0.79 83.12, 2.2 71.64, 6.5 61.35 C10.8 51.05, 16.88 40.79, 26.06 32.38 C35.25 23.97, 48.42 16.28, 61.6 10.87 C74.78 5.47, 89.98 1.02, 105.13 -0.05 C120.28 -1.12, 142.5 3.19, 152.5 4.48 C162.5 5.77, 162.82 6.89, 165.12 7.68 C167.42 8.48, 166.89 7.87, 166.28 9.27" stroke="#2b8a3e" stroke-width="1" fill="none"></path></g><g transform="translate(1221.2704648715685 2002) rotate(0 52.5 12.5)"><text x="0" y="18" font-family="Virgil, Segoe UI Emoji" font-size="20px" fill="#2b8a3e" text-anchor="start" style="white-space: pre;" direction="ltr">Dispatcher</text></g><g stroke-linecap="round"><g transform="translate(943.9329200227032 2050.9) rotate(0 101.1758305758949 -31.240142620559027)"><path d="M0.06 0.03 C33.54 -10.25, 167.6 -50.5, 201.36 -60.78 M-1.37 -1.01 C32.46 -11.7, 169.79 -52.61, 203.72 -62.51" stroke="#2b8a3e" stroke-width="1" fill="none"></path></g><g transform="translate(943.9329200227032 2050.9) rotate(0 101.1758305758949 -31.240142620559027)"><path d="M179.63 -45.81 C189.01 -49.77, 195.83 -58.38, 205.3 -60.76 M180.11 -45.55 C185.56 -49.49, 192.62 -55.12, 203.08 -63.14" stroke="#2b8a3e" stroke-width="1" fill="none"></path></g><g transform="translate(943.9329200227032 2050.9) rotate(0 101.1758305758949 -31.240142620559027)"><path d="M173.82 -65.49 C185.33 -62.7, 194.15 -64.56, 205.3 -60.76 M174.29 -65.23 C181.48 -63.91, 190.1 -64.27, 203.08 -63.14" stroke="#2b8a3e" stroke-width="1" fill="none"></path></g></g><g transform="translate(972.2704648715685 2047) rotate(0 44.5 25)"><text x="0" y="18" font-family="Virgil, Segoe UI Emoji" font-size="20px" fill="#2b8a3e" text-anchor="start" style="white-space: pre;" direction="ltr">dispatch</text><text x="0" y="43" font-family="Virgil, Segoe UI Emoji" font-size="20px" fill="#2b8a3e" text-anchor="start" style="white-space: pre;" direction="ltr">"redirect"</text></g><g stroke-linecap="round" transform="translate(1109.2704648715685 1813.5) rotate(0 126 91)"><path d="M150.61 1.39 C165.44 2.19, 181.34 8.17, 194.32 14.36 C207.3 20.54, 219.6 29.37, 228.49 38.52 C237.38 47.67, 243.87 58.35, 247.65 69.25 C251.43 80.16, 253.2 92.86, 251.16 103.94 C249.12 115.02, 242.99 126.15, 235.4 135.74 C227.8 145.32, 217.26 154.52, 205.6 161.45 C193.94 168.38, 180 173.77, 165.41 177.32 C150.83 180.87, 133.74 183.34, 118.1 182.74 C102.46 182.15, 85.71 178.49, 71.57 173.76 C57.42 169.02, 43.66 162.4, 33.23 154.33 C22.8 146.26, 14.49 135.83, 8.99 125.35 C3.5 114.87, 0.21 102.75, 0.27 91.47 C0.33 80.19, 3.89 67.94, 9.35 57.68 C14.8 47.42, 22.47 37.94, 32.98 29.91 C43.49 21.88, 58.3 14.5, 72.41 9.5 C86.53 4.49, 103.62 1.16, 117.65 -0.12 C131.69 -1.39, 149.49 0.95, 156.64 1.85 C163.79 2.75, 160.98 3.8, 160.55 5.27 M68.24 10.75 C80.37 4.79, 99.4 2.09, 115.07 1.12 C130.73 0.15, 147.65 2, 162.23 4.94 C176.81 7.88, 190.35 12.17, 202.55 18.75 C214.75 25.33, 227.28 34.68, 235.45 44.41 C243.62 54.14, 249.13 66.41, 251.6 77.13 C254.06 87.84, 253.95 97.75, 250.25 108.7 C246.55 119.65, 238.36 133.36, 229.39 142.82 C220.43 152.28, 208.9 159.56, 196.46 165.46 C184.03 171.37, 169.58 175.72, 154.8 178.23 C140.01 180.75, 123.11 181.98, 107.75 180.53 C92.4 179.09, 75.84 174.81, 62.68 169.56 C49.51 164.32, 38.21 157.85, 28.75 149.06 C19.29 140.27, 10.54 127.51, 5.91 116.82 C1.27 106.14, -0.38 95.76, 0.94 84.97 C2.26 74.18, 7.41 62.36, 13.82 52.09 C20.23 41.81, 30.12 30.28, 39.4 23.3 C48.67 16.32, 64.24 12.37, 69.46 10.2 C74.69 8.03, 69.69 9.23, 70.74 10.3" stroke="#2b8a3e" stroke-width="1" fill="none"></path></g><g transform="translate(1175.2704648715685 1851.5) rotate(0 27 12.5)"><text x="0" y="18" font-family="Virgil, Segoe UI Emoji" font-size="20px" fill="#2b8a3e" text-anchor="start" style="white-space: pre;" direction="ltr">Store</text></g><g stroke-linecap="round"><g transform="translate(1394.918306524784 1964.3223478547807) rotate(0 8.901820467130051 -32.60800070835796)"><path d="M-0.12 -0.64 C6.51 -5.59, 43.3 -18.25, 39.49 -29.29 C35.68 -40.33, -12.6 -60.47, -22.99 -66.86 M-1.65 1.64 C5.38 -3.67, 45.46 -19.68, 41.75 -30.87 C38.03 -42.06, -13.21 -59.48, -23.95 -65.49" stroke="#2b8a3e" stroke-width="1" fill="none"></path></g><g transform="translate(1394.918306524784 1964.3223478547807) rotate(0 8.901820467130051 -32.60800070835796)"><path d="M4.93 -64.98 C-0.54 -64.71, -10.35 -64.98, -25.12 -64.56 M5.88 -63.1 C-2.8 -64.29, -11.26 -65.21, -23.92 -65.32" stroke="#2b8a3e" stroke-width="1" fill="none"></path></g><g transform="translate(1394.918306524784 1964.3223478547807) rotate(0 8.901820467130051 -32.60800070835796)"><path d="M-3.33 -46.19 C-6.6 -51.09, -14.13 -56.54, -25.12 -64.56 M-2.38 -44.32 C-8.75 -50.65, -14.95 -56.68, -23.92 -65.32" stroke="#2b8a3e" stroke-width="1" fill="none"></path></g></g><g stroke-linecap="round"><g transform="translate(1112.69357515966 1860.430962780304) rotate(0 -550.657892211389 274.3004535094411)"><path d="M-0.54 -0.75 C-155.43 -14.13, -747.06 -147.21, -928.31 -79.92 C-1109.56 -12.62, -1121.08 282.3, -1088.04 403.05 C-1055 523.79, -804.37 623.83, -730.09 644.55 C-655.81 665.27, -656.85 547.02, -642.35 527.39 M1.38 1.48 C-153.24 -11.78, -744.32 -145.74, -926.07 -78.63 C-1107.82 -11.53, -1121.86 283.47, -1089.13 404.09 C-1056.4 524.72, -803.89 624.43, -729.67 645.12 C-655.44 665.81, -658.39 548.1, -643.78 528.21" stroke="#2b8a3e" stroke-width="1" fill="none"></path></g><g transform="translate(1112.69357515966 1860.430962780304) rotate(0 -550.657892211389 274.3004535094411)"><path d="M-642.99 556.66 C-643.44 545.49, -644.29 535.45, -645.48 528.33 M-642.65 558.46 C-642.91 547.21, -642.58 535.59, -643.91 529.18" stroke="#2b8a3e" stroke-width="1" fill="none"></path></g><g transform="translate(1112.69357515966 1860.430962780304) rotate(0 -550.657892211389 274.3004535094411)"><path d="M-662.71 550.96 C-655.49 542.09, -648.68 534.27, -645.48 528.33 M-662.37 552.76 C-655.4 543.58, -647.8 534.06, -643.91 529.18" stroke="#2b8a3e" stroke-width="1" fill="none"></path></g></g><g transform="translate(705.9926870937912 1775.4603174603183) rotate(7.214262039206741 59 12.5)"><text x="0" y="18" font-family="Virgil, Segoe UI Emoji" font-size="20px" fill="#2b8a3e" text-anchor="start" style="white-space: pre;" direction="ltr">currentPage</text></g><g transform="translate(1197.2704648715685 1914) rotate(0 52.5 22.5)"><text x="52.5" y="32" font-family="Virgil, Segoe UI Emoji" font-size="36px" fill="#2b8a3e" text-anchor="middle" style="white-space: pre;" direction="ltr">Redux</text></g><g stroke-linecap="round"><g transform="translate(2062.992687093791 2385.460317460318) rotate(0 32.70554637327325 -72.57467676616739)"><path d="M1.14 0.33 C12.05 -23.72, 54.64 -119.54, 65.14 -143.92 M0.27 -0.54 C11.08 -24.94, 53.22 -121.37, 64.26 -145.48" stroke="#2b8a3e" stroke-width="1" fill="none"></path></g><g transform="translate(2062.992687093791 2385.460317460318) rotate(0 32.70554637327325 -72.57467676616739)"><path d="M62.71 -115.33 C64.41 -125.14, 61.52 -129.85, 62.63 -146.64 M61.9 -115.91 C62.2 -124.85, 63.35 -133.2, 64.22 -145.18" stroke="#2b8a3e" stroke-width="1" fill="none"></path></g><g transform="translate(2062.992687093791 2385.460317460318) rotate(0 32.70554637327325 -72.57467676616739)"><path d="M43.96 -123.69 C50.74 -131.42, 52.9 -133.89, 62.63 -146.64 M43.16 -124.27 C49.04 -130.6, 55.78 -136.46, 64.22 -145.18" stroke="#2b8a3e" stroke-width="1" fill="none"></path></g></g><g transform="translate(2148.992687093791 2202.460317460318) rotate(0 136 12.5)"><text x="0" y="18" font-family="Virgil, Segoe UI Emoji" font-size="20px" fill="#2b8a3e" text-anchor="start" style="white-space: pre;" direction="ltr">REDIRECT + { page: "..." }</text></g><g stroke-linecap="round"><g transform="translate(1845.9926870937911 2378.460317460318) rotate(0 134.461231984375 -81.45475748734066)"><path d="M-0.21 -0.51 C44.37 -27.45, 223.33 -133.85, 268.34 -160.87 M-1.78 -1.82 C43.12 -29.14, 225.49 -135.76, 270.7 -162.4" stroke="#2b8a3e" stroke-width="1" fill="none"></path></g><g transform="translate(1845.9926870937911 2378.460317460318) rotate(0 134.461231984375 -81.45475748734066)"><path d="M250.74 -140.38 C260.43 -146.48, 264.6 -157.09, 272.07 -163.44 M252.5 -139.31 C256.76 -146.32, 262.99 -153.91, 271.53 -163.07" stroke="#2b8a3e" stroke-width="1" fill="none"></path></g><g transform="translate(1845.9926870937911 2378.460317460318) rotate(0 134.461231984375 -81.45475748734066)"><path d="M240.35 -158.08 C254.02 -157.58, 262.06 -161.6, 272.07 -163.44 M242.11 -157.01 C249.49 -158.67, 258.87 -160.89, 271.53 -163.07" stroke="#2b8a3e" stroke-width="1" fill="none"></path></g></g><g stroke-linecap="round"><g transform="translate(1660.9926870937911 2379.460317460318) rotate(0 232.8860724239005 -94.35248318240042)"><path d="M0.17 1.09 C77.99 -30.5, 389.16 -158.07, 466.97 -189.8 M-1.2 0.62 C76.46 -30.82, 388.1 -157.23, 466 -188.68" stroke="#2b8a3e" stroke-width="1" fill="none"></path></g><g transform="translate(1660.9926870937911 2379.460317460318) rotate(0 232.8860724239005 -94.35248318240042)"><path d="M445.55 -168.65 C449.18 -174.71, 456.8 -181.96, 467.66 -190.02 M443.34 -169.24 C452.85 -176.9, 461.96 -184.2, 465.18 -189.26" stroke="#2b8a3e" stroke-width="1" fill="none"></path></g><g transform="translate(1660.9926870937911 2379.460317460318) rotate(0 232.8860724239005 -94.35248318240042)"><path d="M437.85 -187.67 C443.78 -187.98, 453.73 -189.46, 467.66 -190.02 M435.64 -188.27 C448.15 -188.47, 460.28 -188.32, 465.18 -189.26" stroke="#2b8a3e" stroke-width="1" fill="none"></path></g></g><g stroke-linecap="round" transform="translate(1966.9926870937911 2619.460317460318) rotate(0 70 24.5)"><path d="M-1.07 -1.43 C40.09 -1.41, 79.31 -1.11, 139.25 1.31 M-0.12 0.99 C28.14 -0.12, 55.72 -0.78, 140.47 0.57 M141.34 -1.21 C141.8 14.04, 139.45 32.85, 139.94 48.91 M139.37 0.09 C139.09 15.34, 139.06 31.8, 140.08 49.03 M138.79 50.37 C85.85 49.93, 36.59 46.38, -0.96 50.05 M140.82 48.96 C100.21 48.96, 59.42 49.98, -0.69 48.15 M-1.48 49.34 C1.89 38.86, -0.76 27.14, 0.09 0.64 M0.93 49.46 C0.54 31.32, -0.7 12.57, 0.27 -0.2" stroke="#000000" stroke-width="1" fill="none"></path></g><g stroke-linecap="round" transform="translate(2127.992687093791 2620.460317460318) rotate(0 23 23.5)"><path d="M0.4 0.53 C17.29 -1.33, 33.59 -1.97, 45.36 1.06 M-0.32 0.5 C13.04 -0.02, 26.57 -0.63, 45.21 0.07 M46.21 -1.18 C44.8 15.86, 44.45 30.73, 47.76 45.21 M45.51 0.23 C47.06 11.8, 47.05 23.32, 46.61 47.67 M45.42 48.5 C33.88 46.95, 26.46 47.1, -0.9 46.38 M46.22 46.19 C32.93 47.78, 18.64 47.71, -0.59 46.72 M0.88 48.59 C-0.54 32.42, -0.58 16.94, 0.76 1.24 M0.16 46.31 C1.2 35.17, -0.32 22.44, 0.22 0.29" stroke="#000000" stroke-width="1" fill="none"></path></g><g transform="translate(2144.492687093791 2631.460317460318) rotate(0 6.5 12.5)"><text x="6.5" y="18" font-family="Virgil, Segoe UI Emoji" font-size="20px" fill="#000000" text-anchor="middle" style="white-space: pre;" direction="ltr">+</text></g><g transform="translate(1992.9926870937911 2630.460317460318) rotate(0 13.5 12.5)"><text x="0" y="18" font-family="Virgil, Segoe UI Emoji" font-size="20px" fill="#000000" text-anchor="start" style="white-space: pre;" direction="ltr">42</text></g><g stroke-linecap="round"><g transform="translate(2179.992687093791 2656.460317460318) rotate(0 179.8050433875576 -6.080639217714861)"><path d="M0.29 -0.54 C60.36 -3.04, 300.44 -11.84, 360.63 -13.95 M-1.02 1.79 C58.85 0.01, 299.18 -9.57, 359.48 -12.38" stroke="#2b8a3e" stroke-width="1" fill="none"></path></g><g transform="translate(2179.992687093791 2656.460317460318) rotate(0 179.8050433875576 -6.080639217714861)"><path d="M330.85 -1.55 C340.53 -3.99, 350.6 -7.82, 357.87 -10.53 M331.16 -1.21 C341.54 -5.2, 351.37 -8.52, 360.28 -12.7" stroke="#2b8a3e" stroke-width="1" fill="none"></path></g><g transform="translate(2179.992687093791 2656.460317460318) rotate(0 179.8050433875576 -6.080639217714861)"><path d="M329.98 -22.06 C340.11 -17.99, 350.46 -15.33, 357.87 -10.53 M330.29 -21.71 C341.1 -18.61, 351.24 -14.84, 360.28 -12.7" stroke="#2b8a3e" stroke-width="1" fill="none"></path></g></g><g transform="translate(2564.992687093791 2632.460317460318) rotate(0 25 12.5)"><text x="0" y="18" font-family="Virgil, Segoe UI Emoji" font-size="20px" fill="#2b8a3e" text-anchor="start" style="white-space: pre;" direction="ltr">INCR</text></g><g stroke-linecap="round"><g transform="translate(1459.9926870937911 2582.460317460318) rotate(0 80.80661159562874 -70.62033530966846)"><path d="M0.41 0.2 C27.2 -23, 133.39 -116.24, 160.17 -139.89 M-0.84 -0.75 C26.38 -24.19, 135.57 -118.1, 162.45 -141.44" stroke="#0b7285" stroke-width="1" fill="none"></path></g><g transform="translate(1459.9926870937911 2582.460317460318) rotate(0 80.80661159562874 -70.62033530966846)"><path d="M148.15 -116.63 C153.53 -121.75, 154.2 -129.98, 162.9 -140.86 M147.45 -115.76 C152.92 -123.72, 157.62 -131.28, 162.88 -141.22" stroke="#0b7285" stroke-width="1" fill="none"></path></g><g transform="translate(1459.9926870937911 2582.460317460318) rotate(0 80.80661159562874 -70.62033530966846)"><path d="M134.73 -132.16 C143.43 -133.38, 147.51 -137.67, 162.9 -140.86 M134.04 -131.29 C143.83 -134.3, 152.7 -137.02, 162.88 -141.22" stroke="#0b7285" stroke-width="1" fill="none"></path></g></g><g stroke-linecap="round"><g transform="translate(1468.9926870937911 2591.460317460318) rotate(0 139.83538050130016 -77.94782174304146)"><path d="M-1 0.01 C45.69 -26.01, 233.99 -130.02, 280.67 -155.91 M0.67 -1.02 C47.22 -26.86, 233.27 -128.28, 280.08 -154.33" stroke="#0b7285" stroke-width="1" fill="none"></path></g><g transform="translate(1468.9926870937911 2591.460317460318) rotate(0 139.83538050130016 -77.94782174304146)"><path d="M260.35 -130.63 C267.2 -140.79, 274.97 -149.06, 280.99 -153.6 M259.97 -131.38 C266.81 -139.49, 274.88 -148.47, 280.68 -153.89" stroke="#0b7285" stroke-width="1" fill="none"></path></g><g transform="translate(1468.9926870937911 2591.460317460318) rotate(0 139.83538050130016 -77.94782174304146)"><path d="M250.46 -148.61 C260.73 -152.52, 271.9 -154.63, 280.99 -153.6 M250.08 -149.36 C260.61 -150.87, 272.26 -153.36, 280.68 -153.89" stroke="#0b7285" stroke-width="1" fill="none"></path></g></g><g stroke-linecap="round"><g transform="translate(1467.9926870937911 2610.460317460318) rotate(0 269.1346042327583 -85.27446090183685)"><path d="M-1.07 -0.62 C88.69 -29.32, 449.32 -143.83, 539.33 -172.22 M0.58 1.67 C90.14 -26.84, 448.95 -141.73, 538.56 -170.8" stroke="#0b7285" stroke-width="1" fill="none"></path></g><g transform="translate(1467.9926870937911 2610.460317460318) rotate(0 269.1346042327583 -85.27446090183685)"><path d="M513.84 -151.83 C523.15 -158.9, 533.93 -167.34, 537.02 -169.25 M514.98 -151.49 C521.43 -157.75, 528.5 -163.11, 537.65 -169.92" stroke="#0b7285" stroke-width="1" fill="none"></path></g><g transform="translate(1467.9926870937911 2610.460317460318) rotate(0 269.1346042327583 -85.27446090183685)"><path d="M507.55 -171.37 C519.15 -171.26, 532.22 -172.57, 537.02 -169.25 M508.69 -171.02 C516.81 -171.73, 525.67 -171.55, 537.65 -169.92" stroke="#0b7285" stroke-width="1" fill="none"></path></g></g><g transform="translate(1345.9926870937911 2582.460317460318) rotate(0 53.5 12.5)"><text x="0" y="18" font-family="Virgil, Segoe UI Emoji" font-size="20px" fill="#0b7285" text-anchor="start" style="white-space: pre;" direction="ltr">state.page</text></g><g stroke-linecap="round"><g transform="translate(1447.9926870937911 2617.460317460318) rotate(0 74.53233835636638 119.93172779389192)"><path d="M1 0.57 C25.43 40.56, 122.53 200.37, 146.88 240.05 M0.06 -0.18 C24.82 39.5, 124.1 198.49, 149 238.47" stroke="#0b7285" stroke-width="1" fill="none"></path></g><g transform="translate(1447.9926870937911 2617.460317460318) rotate(0 74.53233835636638 119.93172779389192)"><path d="M126.32 218.11 C134.77 224.24, 140.03 232.2, 147.8 239.87 M126.12 220.09 C132.68 225.37, 140.82 232.71, 149.35 238.65" stroke="#0b7285" stroke-width="1" fill="none"></path></g><g transform="translate(1447.9926870937911 2617.460317460318) rotate(0 74.53233835636638 119.93172779389192)"><path d="M143.73 207.25 C146.56 217.03, 146.18 228.51, 147.8 239.87 M143.53 209.23 C144.18 218.35, 146.39 229.39, 149.35 238.65" stroke="#0b7285" stroke-width="1" fill="none"></path></g></g><g stroke-linecap="round"><g transform="translate(1100.8326098170608 1907.2523859055718) rotate(0 -106.73302349190811 66.37187535395378)"><path d="M-0.17 -0.98 C-30.52 1.64, -146 -7.09, -181.35 15.13 C-216.71 37.35, -207.05 112.71, -212.29 132.34 M-1.72 1.12 C-32.25 3.46, -146.78 -8.61, -182.05 13.49 C-217.31 35.59, -208.13 114.2, -213.3 133.72" stroke="#2b8a3e" stroke-width="1" fill="none"></path></g><g transform="translate(1100.8326098170608 1907.2523859055718) rotate(0 -106.73302349190811 66.37187535395378)"><path d="M-222.98 105.63 C-217.03 114.55, -215.43 124.15, -212.18 135.55 M-221.72 104.77 C-219.44 114.41, -216.35 122.48, -212.46 133.68" stroke="#2b8a3e" stroke-width="1" fill="none"></path></g><g transform="translate(1100.8326098170608 1907.2523859055718) rotate(0 -106.73302349190811 66.37187535395378)"><path d="M-202.52 107.23 C-203.97 115.54, -209.79 124.56, -212.18 135.55 M-201.26 106.36 C-205.5 115.7, -208.93 123.25, -212.46 133.68" stroke="#2b8a3e" stroke-width="1" fill="none"></path></g></g><g transform="translate(811.6850403885429 1933.3805973644317) rotate(290.709037591649 59 25)"><text x="0" y="18" font-family="Virgil, Segoe UI Emoji" font-size="20px" fill="#2b8a3e" text-anchor="start" style="white-space: pre;" direction="ltr">currentPage</text><text x="0" y="43" font-family="Virgil, Segoe UI Emoji" font-size="20px" fill="#2b8a3e" text-anchor="start" style="white-space: pre;" direction="ltr">(active ?)</text></g></svg>